<svg xmlns="http://www.w3.org/2000/svg" viewBox="0 0 214.38 230.45"><g style="isolation:isolate"><g id="Layer_2" data-name="Layer 2"><line x1="148.74" y1="104.77" x2="164.37" y2="74.87" style="fill:none;stroke:#414042;stroke-linecap:round;stroke-miterlimit:10;stroke-width:4px"/><path d="M122.53,170.13l3.28-22.53-4-.58-3.67,25.17-.15,1a2.65,2.65,0,0,0,2.62,3.06h5.16a2.66,2.66,0,0,0,2.66-2.66h0a2.66,2.66,0,0,0-2.66-2.66h-2.51A.7.7,0,0,1,122.53,170.13Z" style="fill:#414042"/><path d="M89.39,170.13,86.1,147.6l4-.58,3.67,25.17.15,1a2.65,2.65,0,0,1-2.62,3.06H86.17a2.66,2.66,0,0,1-2.65-2.66h0a2.66,2.66,0,0,1,2.65-2.66h2.52A.7.7,0,0,0,89.39,170.13Z" style="fill:#414042"/><path d="M151.22,98.86c-3.7-23.31-18.13-76.6-73.64-98.68a2.44,2.44,0,0,0-3.22,3c3.91,12.13,11.69,45.05-5.62,77.36-.56,1-1.18,2-1.8,3s-1.21,2-1.75,3.06l0,0h0a50.45,50.45,0,0,0-5.72,23.44c0,27,20.83,48.79,46.52,48.79s46.52-21.84,46.52-48.79A51.44,51.44,0,0,0,151.22,98.86Z" style="fill:#3cc7f4"/><path d="M112.6,152.26c-25.69,0-46.52-21.84-46.52-48.79A50.45,50.45,0,0,1,71.8,80h0l0,0c.54-1,1.13-2.06,1.75-3.06s1.25-2,1.8-3c15-28.08,11.14-56.62,7.29-71.57C81,1.59,79.32.87,77.58.18a2.44,2.44,0,0,0-3.22,3c3.91,12.13,11.69,45.05-5.62,77.36-.56,1-1.18,2-1.8,3s-1.21,2-1.75,3.06l0,0h0a50.45,50.45,0,0,0-5.72,23.44c0,27,20.83,48.79,46.52,48.79a45.52,45.52,0,0,0,35.25-17A44.94,44.94,0,0,1,112.6,152.26Z" style="fill:#38b5df"/><circle cx="120.95" cy="87.92" r="13.26" style="fill:#fff"/><circle cx="90.97" cy="87.92" r="13.26" style="fill:#fff"/><path d="M91,76.55a13.26,13.26,0,0,1,13.21,12.31c0-.31,0-.62,0-.94a13.26,13.26,0,1,0-26.52,0c0,.32,0,.63.05.94A13.25,13.25,0,0,1,91,76.55Z" style="fill:#d1d3d4"/><path d="M121,76.55a13.26,13.26,0,0,1,13.21,12.31c0-.31.05-.62.05-.94a13.26,13.26,0,1,0-26.52,0c0,.32,0,.63,0,.94A13.25,13.25,0,0,1,121,76.55Z" style="fill:#d1d3d4"/><path d="M113,114.86a.91.91,0,0,1,1,1,8.16,8.16,0,0,1-16.14,0,.91.91,0,0,1,1-1l2.93.47a26.22,26.22,0,0,0,8.2,0Z" style="fill:#414042"/><ellipse cx="108.84" cy="28.86" rx="3.42" ry="9.69" transform="translate(4.1 70.19) rotate(-36.38)" style="fill:#fff"/><ellipse cx="121.63" cy="46.66" rx="3.42" ry="4.84" transform="matrix(0.81, -0.59, 0.59, 0.81, -3.97, 81.24)" style="fill:#fff"/><path d="M64.84,112.24l11.61,21.91a7.87,7.87,0,0,0,8.9,3.93l11-2.83" style="fill:none;stroke:#414042;stroke-linecap:round;stroke-miterlimit:10;stroke-width:4px"/><rect x="95.01" y="126.24" width="2.71" height="17.12" transform="translate(61.49 -27.19) rotate(23.41)" style="fill:#231f20"/><rect x="91.41" y="140.12" width="3.83" height="3.4" rx="0.62" transform="translate(64.03 -25.4) rotate(23.41)" style="fill:#231f20"/><rect x="97.86" y="120.1" width="5.76" height="9.21" rx="0.67" transform="translate(57.84 -29.76) rotate(23.41)" style="fill:#bcbec0"/><rect x="97.61" y="125.07" width="5.76" height="0.42" transform="translate(58.05 -29.61) rotate(23.41)" style="fill:#231f20"/><circle cx="96.37" cy="135.25" r="5.49" style="fill:#414042"/><path d="M161.87,67.47l.28-.51a5.73,5.73,0,0,1,7.78-2.25h0a5.74,5.74,0,0,1,2.25,7.79l-.52.94a7,7,0,0,1-9.48,2.74l-.47-.26a5.89,5.89,0,0,1-2.32-8h0a1.19,1.19,0,0,1,1.61-.47l.32.18A.4.4,0,0,0,161.87,67.47Z" style="fill:#414042"/><path d="M52.83,176.25H161.55a2.57,2.57,0,0,1,2.57,2.57v15.7a0,0,0,0,1,0,0H50.26a0,0,0,0,1,0,0v-15.7a2.57,2.57,0,0,1,2.57-2.57Z" style="fill:#e6e7e8"/><rect x="50.26" y="191.45" width="113.86" height="3.07" style="fill:#d1d3d4;mix-blend-mode:darken"/><path d="M25.69,193.9h163a2.57,2.57,0,0,1,2.57,2.57v15.7a0,0,0,0,1,0,0H23.12a0,0,0,0,1,0,0v-15.7A2.57,2.57,0,0,1,25.69,193.9Z" style="fill:#e6e7e8"/><rect x="23.12" y="209.72" width="168.14" height="3.07" style="fill:#d1d3d4;mix-blend-mode:darken"/><path d="M2.57,212.17H211.81a2.57,2.57,0,0,1,2.57,2.57v15.7a0,0,0,0,1,0,0H0a0,0,0,0,1,0,0v-15.7A2.57,2.57,0,0,1,2.57,212.17Z" style="fill:#e6e7e8"/><rect y="227.38" width="214.38" height="3.07" style="fill:#d1d3d4;mix-blend-mode:darken"/><path d="M98.12,87.34a7.16,7.16,0,0,0-.56-2.24,3.48,3.48,0,0,1-6.45-1.82,3.51,3.51,0,0,1,1-2.44,7,7,0,0,0-1.72-.07,7.17,7.17,0,1,0,7.73,6.57Z" style="fill:#414042"/><path d="M128.1,87.34a7.16,7.16,0,0,0-.56-2.24,3.48,3.48,0,1,1-5.44-4.26,7.17,7.17,0,1,0,6,6.5Z" style="fill:#414042"/><path d="M78.77,176.25c0,2.79,12.17,5.06,27.19,5.06s27.19-2.27,27.19-5.06Z" style="fill:#d1d3d4;mix-blend-mode:darken"/></g></g></svg>