<svg xmlns="http://www.w3.org/2000/svg" viewBox="0 0 214.38 230.45"><g style="isolation:isolate"><g id="Layer_2" data-name="Layer 2"><path d="M122.53,170.13l3.28-22.53-4-.58-3.67,25.17-.15,1a2.65,2.65,0,0,0,2.62,3.06h5.16a2.66,2.66,0,0,0,2.66-2.66h0a2.66,2.66,0,0,0-2.66-2.66h-2.51A.7.7,0,0,1,122.53,170.13Z" style="fill:#414042"/><path d="M89.39,170.13,86.1,147.6l4-.58,3.67,25.17.15,1a2.65,2.65,0,0,1-2.62,3.06H86.17a2.66,2.66,0,0,1-2.65-2.66h0a2.66,2.66,0,0,1,2.65-2.66h2.52A.7.7,0,0,0,89.39,170.13Z" style="fill:#414042"/><path d="M151.22,98.86c-3.7-23.31-18.13-76.6-73.64-98.68a2.44,2.44,0,0,0-3.22,3c3.91,12.13,11.69,45.05-5.62,77.36-.56,1-1.18,2-1.8,3s-1.21,2-1.75,3.06l0,0h0a50.45,50.45,0,0,0-5.72,23.44c0,27,20.83,48.79,46.52,48.79s46.52-21.84,46.52-48.79A51.44,51.44,0,0,0,151.22,98.86Z" style="fill:#3cc7f4"/><path d="M112.6,152.26c-25.69,0-46.52-21.84-46.52-48.79A50.45,50.45,0,0,1,71.8,80h0l0,0c.54-1,1.13-2.06,1.75-3.06s1.25-2,1.8-3c15-28.08,11.14-56.62,7.29-71.57C81,1.59,79.32.87,77.58.18a2.44,2.44,0,0,0-3.22,3c3.91,12.13,11.69,45.05-5.62,77.36-.56,1-1.18,2-1.8,3s-1.21,2-1.75,3.06l0,0h0a50.45,50.45,0,0,0-5.72,23.44c0,27,20.83,48.79,46.52,48.79a45.52,45.52,0,0,0,35.25-17A44.94,44.94,0,0,1,112.6,152.26Z" style="fill:#38b5df"/><circle cx="120.95" cy="87.92" r="13.26" style="fill:#fff"/><circle cx="90.97" cy="87.92" r="13.26" style="fill:#fff"/><path d="M91,76.55a13.26,13.26,0,0,1,13.21,12.31c0-.31,0-.62,0-.94a13.26,13.26,0,1,0-26.52,0c0,.32,0,.63.05.94A13.25,13.25,0,0,1,91,76.55Z" style="fill:#d1d3d4"/><path d="M121,76.55a13.26,13.26,0,0,1,13.21,12.31c0-.31.05-.62.05-.94a13.26,13.26,0,1,0-26.52,0c0,.32,0,.63,0,.94A13.25,13.25,0,0,1,121,76.55Z" style="fill:#d1d3d4"/><path d="M99.82,91.66a7,7,0,0,0-.56-2.24,3.47,3.47,0,1,1-5.44-4.25,7.1,7.1,0,0,0-1.73-.08,7.17,7.17,0,1,0,7.73,6.57Z" style="fill:#414042"/><path d="M126.41,91.66a7,7,0,0,0-.56-2.24,3.47,3.47,0,1,1-5.44-4.25,7,7,0,0,0-1.72-.08,7.17,7.17,0,1,0,7.72,6.57Z" style="fill:#414042"/><path d="M113,114.86a.91.91,0,0,1,1,1,8.16,8.16,0,0,1-16.14,0,.91.91,0,0,1,1-1l2.93.47a26.22,26.22,0,0,0,8.2,0Z" style="fill:#414042"/><ellipse cx="108.84" cy="28.86" rx="3.42" ry="9.69" transform="translate(4.1 70.19) rotate(-36.38)" style="fill:#fff"/><ellipse cx="121.63" cy="46.66" rx="3.42" ry="4.84" transform="matrix(0.81, -0.59, 0.59, 0.81, -3.97, 81.24)" style="fill:#fff"/><path d="M64.84,112.24l11.61,21.91a7.87,7.87,0,0,0,8.9,3.93l11-2.83" style="fill:none;stroke:#414042;stroke-linecap:round;stroke-miterlimit:10;stroke-width:4px"/><rect x="95.01" y="126.24" width="2.71" height="17.12" transform="translate(61.49 -27.19) rotate(23.41)" style="fill:#231f20"/><rect x="91.41" y="140.12" width="3.83" height="3.4" rx="0.62" transform="translate(64.03 -25.4) rotate(23.41)" style="fill:#231f20"/><rect x="97.86" y="120.1" width="5.76" height="9.21" rx="0.67" transform="translate(57.84 -29.76) rotate(23.41)" style="fill:#bcbec0"/><rect x="97.61" y="125.07" width="5.76" height="0.42" transform="translate(58.05 -29.61) rotate(23.41)" style="fill:#231f20"/><circle cx="96.37" cy="135.25" r="5.49" style="fill:#414042"/><rect x="104.34" y="125.91" width="22.75" height="13.29" rx="0.95" style="fill:#eee8db"/><path d="M52.83,176.25H161.55a2.57,2.57,0,0,1,2.57,2.57v15.7a0,0,0,0,1,0,0H50.26a0,0,0,0,1,0,0v-15.7A2.57,2.57,0,0,1,52.83,176.25Z" style="fill:#e6e7e8"/><rect x="50.26" y="191.45" width="113.86" height="3.07" style="fill:#d1d3d4;mix-blend-mode:darken"/><path d="M25.69,193.9h163a2.57,2.57,0,0,1,2.57,2.57v15.7a0,0,0,0,1,0,0H23.12a0,0,0,0,1,0,0v-15.7A2.57,2.57,0,0,1,25.69,193.9Z" style="fill:#e6e7e8"/><rect x="23.12" y="209.72" width="168.14" height="3.07" style="fill:#d1d3d4;mix-blend-mode:darken"/><path d="M2.57,212.17H211.81a2.57,2.57,0,0,1,2.57,2.57v15.7a0,0,0,0,1,0,0H0a0,0,0,0,1,0,0v-15.7A2.57,2.57,0,0,1,2.57,212.17Z" style="fill:#e6e7e8"/><rect y="227.38" width="214.38" height="3.07" style="fill:#d1d3d4;mix-blend-mode:darken"/><path d="M108.32,133.67a1.36,1.36,0,0,1-.09-.23.85.85,0,0,1,0-.23,1.33,1.33,0,0,1,.17-.67c.12-.2.25-.39.39-.58s.26-.39.38-.59a1.42,1.42,0,0,0,.17-.7A.79.79,0,0,0,109,130a1,1,0,0,0-.67-.22,2.42,2.42,0,0,0-.42,0,1.66,1.66,0,0,0-.29.09.93.93,0,0,0-.18.12l-.14.14a.44.44,0,0,1,.33.19.68.68,0,0,1,.14.44,1,1,0,0,1-.16.53.69.69,0,0,1-.59.22.59.59,0,0,1-.48-.22.88.88,0,0,1-.2-.57,1.39,1.39,0,0,1,.13-.58,1.42,1.42,0,0,1,.4-.56,2.35,2.35,0,0,1,.74-.41,3.13,3.13,0,0,1,1.13-.17,5,5,0,0,1,.88.07,2.46,2.46,0,0,1,.75.26,1.36,1.36,0,0,1,.71,1.28,1.49,1.49,0,0,1-.16.73,1.85,1.85,0,0,1-.4.51,3.42,3.42,0,0,1-.52.4c-.18.12-.36.24-.53.37a2.08,2.08,0,0,0-.41.43,1,1,0,0,0-.19.58Zm.33.75a.72.72,0,0,1,.33.07,1.2,1.2,0,0,1,.26.18,1,1,0,0,1,.17.27.71.71,0,0,1,.07.32.82.82,0,0,1-.83.83.88.88,0,0,1-.33-.06.71.71,0,0,1-.27-.18.8.8,0,0,1-.18-.27.88.88,0,0,1,0-.64,1,1,0,0,1,.19-.27,1,1,0,0,1,.26-.18A.75.75,0,0,1,108.65,134.42Z" style="fill:#939598"/><path d="M115.08,134.21c-.06-.12-.1-.24-.14-.34a1.34,1.34,0,0,1,0-.35,1.88,1.88,0,0,1,.26-1q.25-.44.57-.87a8.25,8.25,0,0,0,.57-.88,2,2,0,0,0,.26-1,1.18,1.18,0,0,0-.42-1,1.57,1.57,0,0,0-1-.33,3.65,3.65,0,0,0-.63.05,1.39,1.39,0,0,0-.42.13,1.32,1.32,0,0,0-.29.19c-.07.07-.14.13-.2.2a.66.66,0,0,1,.49.28,1,1,0,0,1,.21.67,1.34,1.34,0,0,1-.24.79,1,1,0,0,1-.88.34.93.93,0,0,1-.73-.35,1.29,1.29,0,0,1-.29-.85,2.36,2.36,0,0,1,.19-.87,2.26,2.26,0,0,1,.61-.83,3.44,3.44,0,0,1,1.11-.63,4.9,4.9,0,0,1,1.69-.25,8,8,0,0,1,1.32.11,3.76,3.76,0,0,1,1.13.39,2.33,2.33,0,0,1,.78.75,2.27,2.27,0,0,1,.28,1.18,2.21,2.21,0,0,1-.24,1.08,2.9,2.9,0,0,1-.6.78,5.6,5.6,0,0,1-.77.59,9.39,9.39,0,0,0-.8.55,2.93,2.93,0,0,0-.62.65,1.64,1.64,0,0,0-.29.87Zm.49,1.12a1.14,1.14,0,0,1,.49.11,1.36,1.36,0,0,1,.39.27,1.56,1.56,0,0,1,.27.4,1.28,1.28,0,0,1,.09.48,1.23,1.23,0,0,1-.36.89,1.19,1.19,0,0,1-.88.36,1.24,1.24,0,0,1-.9-.36,1.18,1.18,0,0,1-.27-.4,1.34,1.34,0,0,1-.1-.49,1.13,1.13,0,0,1,.11-.48,1.27,1.27,0,0,1,.67-.67A1.17,1.17,0,0,1,115.57,135.33Z" style="fill:#27aae1"/><path d="M122.26,133.65a1,1,0,0,1-.09-.22.85.85,0,0,1,0-.23,1.37,1.37,0,0,1,.17-.68l.38-.57c.14-.19.27-.39.39-.59a1.45,1.45,0,0,0,.17-.7A.79.79,0,0,0,123,130a1,1,0,0,0-.67-.22,2.42,2.42,0,0,0-.42,0,1,1,0,0,0-.29.09.88.88,0,0,0-.19.12l-.13.13a.54.54,0,0,1,.33.19.71.71,0,0,1,.13.45.88.88,0,0,1-.16.53.66.66,0,0,1-.58.22.62.62,0,0,1-.49-.23.89.89,0,0,1-.19-.57,1.57,1.57,0,0,1,.53-1.13,2.18,2.18,0,0,1,.74-.42,3.36,3.36,0,0,1,1.13-.17,5.05,5.05,0,0,1,.88.08,2.46,2.46,0,0,1,.75.26,1.39,1.39,0,0,1,.52.5,1.46,1.46,0,0,1,.19.78,1.49,1.49,0,0,1-.16.73,2.2,2.2,0,0,1-.4.51,3.42,3.42,0,0,1-.52.4c-.19.11-.36.24-.53.36a2.12,2.12,0,0,0-.41.44,1,1,0,0,0-.19.57Zm.33.76a.83.83,0,0,1,.59.25,1,1,0,0,1,.17.27.82.82,0,0,1-.17.91.81.81,0,0,1-.59.24.72.72,0,0,1-.33-.07.73.73,0,0,1-.27-.17.8.8,0,0,1-.18-.27.88.88,0,0,1-.07-.33.82.82,0,0,1,.07-.31,1,1,0,0,1,.19-.27.68.68,0,0,1,.26-.18A.72.72,0,0,1,122.59,134.41Z" style="fill:#939598"/><path d="M148.3,112.54,145,130.64a5,5,0,0,1-5.65,4.09l-13-1.78" style="fill:none;stroke:#414042;stroke-linecap:round;stroke-miterlimit:10;stroke-width:4px"/><circle cx="126.35" cy="132.95" r="5.49" style="fill:#414042"/><path d="M78.77,176.25c0,2.79,12.17,5.06,27.19,5.06s27.19-2.27,27.19-5.06Z" style="fill:#d1d3d4;mix-blend-mode:darken"/></g></g></svg>