<svg xmlns="http://www.w3.org/2000/svg" viewBox="0 0 150 150"><g id="scale"><rect x="128.67" y="67.18" width="3.81" height="8.64" style="fill:#e6e7e8"/><rect x="17.52" y="67.18" width="3.81" height="8.64" style="fill:#e6e7e8"/><polygon points="130.57 82.6 75 87.47 19.43 82.6 19.43 75.26 75 70.39 130.57 75.26 130.57 82.6" style="fill:#e6e7e8"/><polygon points="19.43 80.92 19.43 82.6 75 87.47 130.57 82.6 130.57 80.92 75 85.8 19.43 80.92" style="fill:#bcbec0"/><circle cx="130.57" cy="79.11" r="5.73" style="fill:#fadf00"/><path d="M130.57,83.16a5.71,5.71,0,0,1-5.65-4.89,5.83,5.83,0,0,0-.07.84,5.73,5.73,0,0,0,11.45,0,5.83,5.83,0,0,0-.07-.84A5.71,5.71,0,0,1,130.57,83.16Z" style="fill:#fbac18"/><circle cx="19.43" cy="79.11" r="5.73" style="fill:#fadf00"/><path d="M19.43,83.16a5.71,5.71,0,0,1-5.66-4.89,5.83,5.83,0,0,0-.07.84,5.73,5.73,0,0,0,11.45,0,5.83,5.83,0,0,0-.07-.84A5.71,5.71,0,0,1,19.43,83.16Z" style="fill:#fbac18"/><path d="M115.51,68.68h30.13a.73.73,0,0,0,.57-.26l3.67-4.7c.31-.38,0-.9-.57-.9H111.83c-.54,0-.87.52-.57.9l3.68,4.7A.72.72,0,0,0,115.51,68.68Z" style="fill:#fadf00"/><path d="M149.71,62.87l-3.5,4.47a.73.73,0,0,1-.57.26H115.51a.72.72,0,0,1-.57-.26l-3.5-4.47a.54.54,0,0,0-.18.8l3.68,4.7a.72.72,0,0,0,.57.26h30.13a.73.73,0,0,0,.57-.26l3.67-4.7A.53.53,0,0,0,149.71,62.87Z" style="fill:#fbac18"/><path d="M4.36,68.68H34.49a.72.72,0,0,0,.57-.26l3.68-4.7c.3-.38,0-.9-.57-.9H.69c-.55,0-.88.52-.57.9l3.67,4.7A.73.73,0,0,0,4.36,68.68Z" style="fill:#fadf00"/><path d="M38.56,62.87l-3.5,4.47a.72.72,0,0,1-.57.26H4.36a.73.73,0,0,1-.57-.26L.29,62.87a.53.53,0,0,0-.17.8l3.67,4.7a.73.73,0,0,0,.57.26H34.49a.72.72,0,0,0,.57-.26l3.68-4.7A.54.54,0,0,0,38.56,62.87Z" style="fill:#fbac18"/><path d="M66,60.48H84a2.37,2.37,0,0,1,2.37,2.37V103a0,0,0,0,1,0,0H63.64a0,0,0,0,1,0,0V62.85A2.37,2.37,0,0,1,66,60.48Z" style="fill:#754c29"/><rect x="63.64" y="101.18" width="22.72" height="1.81" style="fill:#603913"/><path d="M36.44,103h76.79a3.48,3.48,0,0,1,3.48,3.48v3.43a0,0,0,0,1,0,0H33a0,0,0,0,1,0,0v-3.43A3.48,3.48,0,0,1,36.44,103Z" style="fill:#754c29"/><rect x="32.96" y="108.04" width="83.76" height="1.83" style="fill:#603913"/><path d="M29.21,109.9h91.58a3.48,3.48,0,0,1,3.48,3.48v6.52a0,0,0,0,1,0,0H25.73a0,0,0,0,1,0,0v-6.52A3.48,3.48,0,0,1,29.21,109.9Z" style="fill:#754c29"/><rect x="25.73" y="117.66" width="98.54" height="2.23" style="fill:#603913"/><circle cx="75" cy="78.93" r="5.46" style="fill:#fadf00"/><path d="M75,82.85a5.46,5.46,0,0,1-5.4-4.69,6.48,6.48,0,0,0-.06.77,5.46,5.46,0,0,0,10.92,0,6.48,6.48,0,0,0-.06-.77A5.46,5.46,0,0,1,75,82.85Z" style="fill:#fbac18"/><circle cx="75" cy="78.93" r="2.67" style="fill:#e6e7e8"/><path d="M75,77.14a2.66,2.66,0,0,1,2.62,2.23,2.12,2.12,0,0,0,0-.44,2.67,2.67,0,0,0-5.34,0,2.12,2.12,0,0,0,0,.44A2.66,2.66,0,0,1,75,77.14Z" style="fill:#bcbec0"/><circle cx="130.57" cy="79.11" r="2.77" style="fill:#e6e7e8"/><circle cx="19.43" cy="79.11" r="2.77" style="fill:#e6e7e8"/><path d="M19.43,77.08a2.76,2.76,0,0,1,2.73,2.39c0-.12,0-.24,0-.37a2.77,2.77,0,1,0-5.53,0,2.21,2.21,0,0,0,0,.37A2.75,2.75,0,0,1,19.43,77.08Z" style="fill:#bcbec0"/><path d="M130.57,77.08a2.75,2.75,0,0,1,2.73,2.39,2.21,2.21,0,0,0,0-.37,2.77,2.77,0,0,0-5.54,0c0,.13,0,.25,0,.37A2.76,2.76,0,0,1,130.57,77.08Z" style="fill:#bcbec0"/><path d="M124.94,59.08c0,2.23-1.27,3.37-2.82,3.37s-2.82-1.14-2.82-3.37,2.82-6.68,2.82-6.68S124.94,56.86,124.94,59.08Z" style="fill:#3cc7f4"/><path d="M130.57,59.08c0,2.23-1.26,3.37-2.82,3.37s-2.81-1.14-2.81-3.37,2.81-6.68,2.81-6.68S130.57,56.86,130.57,59.08Z" style="fill:#3cc7f4"/><path d="M136.21,59.08c0,2.23-1.26,3.37-2.82,3.37s-2.82-1.14-2.82-3.37,2.82-6.68,2.82-6.68S136.21,56.86,136.21,59.08Z" style="fill:#3cc7f4"/><path d="M141.85,59.08c0,2.23-1.26,3.37-2.82,3.37s-2.82-1.14-2.82-3.37S139,52.4,139,52.4,141.85,56.86,141.85,59.08Z" style="fill:#3cc7f4"/><path d="M139,51.8c0,2.22-1.26,3.36-2.82,3.36s-2.82-1.14-2.82-3.36,2.82-6.69,2.82-6.69S139,49.57,139,51.8Z" style="fill:#3cc7f4"/><path d="M133.39,51.8c0,2.22-1.26,3.37-2.82,3.37s-2.82-1.15-2.82-3.37,2.82-6.68,2.82-6.68S133.39,49.58,133.39,51.8Z" style="fill:#3cc7f4"/><path d="M127.75,51.8c0,2.22-1.26,3.37-2.81,3.37s-2.82-1.15-2.82-3.37,2.82-6.68,2.82-6.68S127.75,49.58,127.75,51.8Z" style="fill:#3cc7f4"/><path d="M130.57,43.9c0,2.22-1.26,3.36-2.82,3.36s-2.81-1.14-2.81-3.36,2.81-6.69,2.81-6.69S130.57,41.67,130.57,43.9Z" style="fill:#3cc7f4"/><path d="M136.21,43.9c0,2.22-1.26,3.36-2.82,3.36s-2.82-1.14-2.82-3.36,2.82-6.69,2.82-6.69S136.21,41.67,136.21,43.9Z" style="fill:#3cc7f4"/><path d="M133.39,35.62c0,2.22-1.26,3.36-2.82,3.36s-2.82-1.14-2.82-3.36,2.82-6.69,2.82-6.69S133.39,33.39,133.39,35.62Z" style="fill:#3cc7f4"/><path d="M5.64,59.08c0,2.23-1.26,3.37-2.82,3.37S0,61.31,0,59.08,2.82,52.4,2.82,52.4,5.64,56.86,5.64,59.08Z" style="fill:#3cc7f4"/><path d="M17.52,59.08c0,2.23-1.26,3.37-2.82,3.37s-2.81-1.14-2.81-3.37S14.7,52.4,14.7,52.4,17.52,56.86,17.52,59.08Z" style="fill:#3cc7f4"/><path d="M29,59.08c0,2.23-1.26,3.37-2.82,3.37s-2.82-1.14-2.82-3.37,2.82-6.68,2.82-6.68S29,56.86,29,59.08Z" style="fill:#3cc7f4"/><path d="M38.85,59.08c0,2.23-1.26,3.37-2.82,3.37s-2.81-1.14-2.81-3.37S36,52.4,36,52.4,38.85,56.86,38.85,59.08Z" style="fill:#3cc7f4"/><path d="M33.93,51.8c0,2.22-1.26,3.36-2.82,3.36S28.29,54,28.29,51.8s2.82-6.69,2.82-6.69S33.93,49.57,33.93,51.8Z" style="fill:#3cc7f4"/><path d="M23.25,51.8c0,2.22-1.27,3.37-2.82,3.37S17.61,54,17.61,51.8s2.82-6.68,2.82-6.68S23.25,49.58,23.25,51.8Z" style="fill:#3cc7f4"/><path d="M11.58,51.8c0,2.22-1.26,3.37-2.82,3.37S5.94,54,5.94,51.8s2.82-6.68,2.82-6.68S11.58,49.58,11.58,51.8Z" style="fill:#3cc7f4"/><path d="M17.52,43.9c0,2.22-1.26,3.36-2.82,3.36s-2.81-1.14-2.81-3.36,2.81-6.69,2.81-6.69S17.52,41.67,17.52,43.9Z" style="fill:#3cc7f4"/><path d="M29,43.9c0,2.22-1.26,3.36-2.82,3.36s-2.82-1.14-2.82-3.36,2.82-6.69,2.82-6.69S29,41.67,29,43.9Z" style="fill:#3cc7f4"/><path d="M23.25,35.62C23.25,37.84,22,39,20.43,39s-2.82-1.14-2.82-3.36,2.82-6.69,2.82-6.69S23.25,33.39,23.25,35.62Z" style="fill:#3cc7f4"/></g></svg>