<svg xmlns="http://www.w3.org/2000/svg" viewBox="0 0 150 150"><g id="condensation-2" data-name="condensation"><rect x="-0.15" y="-0.21" width="150" height="150" style="fill:#9dc1cb"/><path d="M142.71,75.46h0a3.43,3.43,0,0,0-2.57-4.14c-5.26-1.62-7.91-2.34-13.24-3.62a2.19,2.19,0,0,1-1.81-2.46h0a2.18,2.18,0,0,1,2.74-1.4c3.48.83,5.22,1.28,8.67,2.26,2,.57,4-.31,4.55-2h0c.51-1.68-.75-3.55-2.82-4.13-4.49-1.27-6.74-1.85-11.27-2.88l-2.69-.6a259.34,259.34,0,0,0-98.52.06C14.84,58.92,5.84,69.11,9.27,80.63h0c3.61,10,14.4,15.08,24.55,13a219.47,219.47,0,0,1,82.42,0c.91.19,1.36.29,2.26.5,3.79.86,5.67,1.35,9.43,2.41a3.27,3.27,0,0,0,4-2.14h0a3.25,3.25,0,0,0-2.31-4c-3-.83-4.45-1.22-7.43-1.94a2.34,2.34,0,0,1-1.81-2.75h0A2.32,2.32,0,0,1,123.29,84c1.51.37,2.27.56,3.78.95a3.35,3.35,0,0,0,4.17-2.17h0a3.32,3.32,0,0,0-2.56-4c-1.67-.44-2.51-.65-4.19-1.06a2.11,2.11,0,0,1-1.7-2.44h0a2.1,2.1,0,0,1,2.63-1.42c5.17,1.24,7.75,1.94,12.86,3.51A3.47,3.47,0,0,0,142.71,75.46Z" style="fill:#e8f5f6"/><path d="M120.42,85.58a2.18,2.18,0,0,1,1.33-1.53,51.56,51.56,0,0,0-5-14.83h0l0,0c-.56-1.07-1.16-2.12-1.8-3.14s-1.28-2-1.84-3.09a91.39,91.39,0,0,1-4.2-9,256.74,256.74,0,0,0-73.64.9,155.5,155.5,0,0,0-6.78,26.86,52.2,52.2,0,0,0-1.29,11.54c0,.2,0,.4,0,.61a22.81,22.81,0,0,0,6.68-.35,219.47,219.47,0,0,1,82.42,0c.91.19,1.36.29,2.26.5,1.58.36,2.83.66,4,1,0-.56,0-1.11,0-1.67,0-1.67-.1-3.3-.25-4.93l-.09,0A2.34,2.34,0,0,1,120.42,85.58Z" style="fill:#3cc7f4;opacity:0.8"/><path d="M120.42,85.58a2.18,2.18,0,0,1,1.33-1.53,51.56,51.56,0,0,0-5-14.83h0l0,0c-.56-1.07-1.16-2.12-1.8-3.14s-1.28-2-1.84-3.09a91.39,91.39,0,0,1-4.2-9c-1.33-.17-2.66-.35-4-.5.44.88.9,1.77,1.37,2.66.57,1,1.21,2.07,1.85,3.09s1.23,2.06,1.8,3.14c0,0,0,0,0,0h0a51.67,51.67,0,0,1,5.87,24,53.36,53.36,0,0,1-.46,6.85l.94.17c.91.19,1.36.29,2.26.5,1.58.36,2.83.66,4,1,0-.56,0-1.11,0-1.67,0-1.67-.1-3.3-.25-4.93l-.09,0A2.34,2.34,0,0,1,120.42,85.58Z" style="fill:#38b5df;opacity:0.8"/><path d="M9.64,84.22l-.92-1.45A16.9,16.9,0,0,1,14,59.47h0a16.89,16.89,0,0,1,23.3,5.27l1.7,2.7a20.57,20.57,0,0,1-6.42,28.37l-1.36.86a17.38,17.38,0,0,1-24-5.43h0a3.48,3.48,0,0,1,1.09-4.8l.93-.59A1.18,1.18,0,0,0,9.64,84.22Z" style="fill:#414042"/><path d="M145.85,3.79v142H3.85V3.79h142m4-4H-.15v150h150V-.21Z" style="fill:#bda591"/><line x1="24.15" y1="78.1" x2="113.33" y2="154.01" style="fill:none;stroke:#414042;stroke-miterlimit:10;stroke-width:10px"/><circle cx="90.23" cy="70.5" r="13.6" style="fill:#fff;opacity:0.8"/><circle cx="59.47" cy="70.5" r="13.6" style="fill:#fff;opacity:0.8"/><path d="M51.79,70.78a7.69,7.69,0,0,1,.57-2.3A3.57,3.57,0,1,0,58,64.12a7.35,7.35,0,1,1-6.16,6.66Z" style="fill:#414042;opacity:0.8"/><path d="M82.55,70.78a7.69,7.69,0,0,1,.57-2.3,3.57,3.57,0,1,0,5.59-4.36,7.35,7.35,0,1,1-6.16,6.66Z" style="fill:#414042;opacity:0.8"/></g></svg>