<svg xmlns="http://www.w3.org/2000/svg" viewBox="0 0 150 150"><g style="isolation:isolate"><g id="dissolve"><path d="M74.84.1H27.43a7.94,7.94,0,0,0-7.81,9.33l24,133.94a7.94,7.94,0,0,0,7.81,6.53H98.24a7.94,7.94,0,0,0,7.81-6.53l24-133.94A7.94,7.94,0,0,0,122.24.1Z" style="fill:#e8eae9"/><path d="M74.84,36.51H36.79a1.93,1.93,0,0,0-1.9,2.26l17.22,98.79a1.94,1.94,0,0,0,1.91,1.6H95.65a1.94,1.94,0,0,0,1.91-1.6l17.22-98.79a1.93,1.93,0,0,0-1.9-2.26Z" style="fill:#3cc7f4"/><path d="M122.57.1H104.41l-4,50.34c-.31,4-.48,7.9-.63,11.86A136.48,136.48,0,0,1,86.9,115.48L68.15,149.9H98.57a7.94,7.94,0,0,0,7.81-6.53l24-133.94A7.94,7.94,0,0,0,122.57.1Z" style="fill:#d1d3d2;opacity:0.8;mix-blend-mode:darken"/><path d="M38.59,7.23h9.64a3,3,0,0,1,3,2.87L55,78.7a3,3,0,0,1-6,.74L35.61,10.84A3,3,0,0,1,38.59,7.23Z" style="fill:#fff;opacity:0.4;mix-blend-mode:lighten"/><circle cx="74.85" cy="91.92" r="12.37" style="fill:#fff"/><rect x="73.72" y="79.55" width="2.27" height="24.73" transform="translate(86.92 -26.01) rotate(45)" style="fill:#bcbec0"/><circle cx="84.52" cy="59.24" r="3" style="fill:#fff"/><circle cx="65.52" cy="67.46" r="1.02" style="fill:#fff"/><circle cx="77.04" cy="49.57" r="2.12" style="fill:#fff"/><circle cx="74.68" cy="72.21" r="2.12" style="fill:#fff"/><circle cx="69.59" cy="109.17" r="1.81" style="fill:#fff"/></g></g></svg>