<svg xmlns="http://www.w3.org/2000/svg" viewBox="0 0 150 150"><g id="condensation-2" data-name="condensation"><rect x="4.58" y="4.58" width="140.84" height="140.84" style="fill:#acd1dc"/><polygon points="150 72.93 77.07 72.93 77.07 0 72.93 0 72.93 72.93 0 72.93 0 77.07 72.93 77.07 72.93 150 77.07 150 77.07 77.07 150 77.07 150 72.93" style="fill:#8b5e3c"/><path d="M4.58,4.58V145.42H145.42V4.58Zm137.5,127.05a9.87,9.87,0,0,0-1.13,5.14,4.5,4.5,0,0,1-.09,1,4.84,4.84,0,0,1-6.47,3.55,4.2,4.2,0,0,0-3.84.27,4.17,4.17,0,0,1-3.29.57,8.19,8.19,0,0,0-4.89.39,5.51,5.51,0,0,1-2,.38,5.62,5.62,0,0,1-2.65-.66l-.55-.09a16,16,0,0,0-6.82.21,22.09,22.09,0,0,1-3.24.54,5.5,5.5,0,0,1-1.73-.27,5,5,0,0,0-4.29.38,6.85,6.85,0,0,1-6,.68,7.44,7.44,0,0,0-5,.13,4.09,4.09,0,0,1-1.36.23,4.18,4.18,0,0,1-1.84-.42,11.1,11.1,0,0,0-6.07-1.15c-.21,0-.43,0-.65,0a6.62,6.62,0,0,1-1.41-.15,8.71,8.71,0,0,0-5.65.75,5.47,5.47,0,0,1-2.49.58,5.55,5.55,0,0,1-2.75-.72A6.08,6.08,0,0,0,63,142.7a5.45,5.45,0,0,1-1.67.25,5.85,5.85,0,0,1-1.58-.22,9.47,9.47,0,0,0-5.17.12,3.93,3.93,0,0,1-1.09.15,4.09,4.09,0,0,1-1.82-.42,6.13,6.13,0,0,0-4.88,0,6.93,6.93,0,0,1-2.42.44,6.63,6.63,0,0,1-1.91-.27,7.81,7.81,0,0,0-5.62.46,5.7,5.7,0,0,1-4.59.13,4.29,4.29,0,0,0-3.64.31,4.09,4.09,0,0,1-1.91.47,4,4,0,0,1-1.34-.22,14,14,0,0,0-4.6-.88h-.17a4,4,0,0,1-2.18-.63,5.45,5.45,0,0,0-3-.71,7.75,7.75,0,0,1-2.81-.49,8,8,0,0,1-5.21-6.73,7.94,7.94,0,0,1,.4-3.21A8.31,8.31,0,0,0,7.81,126a6,6,0,0,1-.28-1.81,5.94,5.94,0,0,1,.36-2,9.31,9.31,0,0,0-.11-6.27,4.65,4.65,0,0,1-.25-1.54,4.77,4.77,0,0,1,.72-2.54,5.85,5.85,0,0,0,.5-4.64,7.78,7.78,0,0,1-.26-2,7.94,7.94,0,0,1,.61-3,7.84,7.84,0,0,0-.16-6.26A4.78,4.78,0,0,1,8.49,94a5.22,5.22,0,0,1,.22-1.63,11.74,11.74,0,0,0-.1-6,4.92,4.92,0,0,1-.12-1.09,5,5,0,0,1,.11-1A8.78,8.78,0,0,0,8,78.85a8,8,0,0,1-.64-3.13A7.84,7.84,0,0,1,7.8,73a8.31,8.31,0,0,0,.13-6,5.91,5.91,0,0,1,0-4.35,8.1,8.1,0,0,0-.13-6,7.89,7.89,0,0,1,.09-5.86,12,12,0,0,0,.62-6.46,5.55,5.55,0,0,1,0-.72,4.81,4.81,0,0,1,.17-1.27A9.21,9.21,0,0,0,8,35.92a8,8,0,0,1-.24-6.08,6.51,6.51,0,0,0-.42-5.66,5.8,5.8,0,0,1,0-5.91,9.8,9.8,0,0,0,1.13-5.14,5.48,5.48,0,0,1,.1-1.05A4.81,4.81,0,0,1,15,8.56a8.18,8.18,0,0,0,3.9.36,3.75,3.75,0,0,1,.48,0,5.46,5.46,0,0,1,.57,0,13.18,13.18,0,0,0,5.72-.45,5.79,5.79,0,0,1,1.63-.24,5.53,5.53,0,0,1,2.23.47c.24.1.53.2.83.29a12,12,0,0,0,6.86-.2,11.94,11.94,0,0,1,3.33-.56,5.45,5.45,0,0,1,1.73.28,5,5,0,0,0,4.29-.39A6.75,6.75,0,0,1,50.29,7a6.63,6.63,0,0,1,1.91.28,11.73,11.73,0,0,0,5.91-.12A3.93,3.93,0,0,1,59,7.09a4.19,4.19,0,0,1,1.84.43,11.19,11.19,0,0,0,6.07,1.15c.21,0,.43,0,.65,0a6.91,6.91,0,0,1,1.3.12A10,10,0,0,0,74.83,8a5.6,5.6,0,0,1,5.06.22,6,6,0,0,0,4.79.32,5.77,5.77,0,0,1,1.67-.25,5.54,5.54,0,0,1,2,.36,6.38,6.38,0,0,0,4.45-.15,4.21,4.21,0,0,1,1.43-.25A4.3,4.3,0,0,1,96,8.61a6.11,6.11,0,0,0,4.87,0,6.92,6.92,0,0,1,3.71-.32,12.29,12.29,0,0,0,6.69-.5,5.56,5.56,0,0,1,4.14.06,4.29,4.29,0,0,0,3.64-.32A4.09,4.09,0,0,1,121,7.09a4.23,4.23,0,0,1,1.34.22,14.23,14.23,0,0,0,4.6.89h.17a4.28,4.28,0,0,1,1.09.14,9.26,9.26,0,0,0,4.41.08,8.1,8.1,0,0,1,3.43,0A7.86,7.86,0,0,1,142,14.51a7.94,7.94,0,0,1-.45,4.69,6.06,6.06,0,0,0,0,4.49,5.73,5.73,0,0,1-.15,4.41,6.27,6.27,0,0,0,.17,5.27,4.08,4.08,0,0,1,.35,2.19,6.28,6.28,0,0,1-.77,2.47,6.2,6.2,0,0,0-.45,4.71,8.24,8.24,0,0,1,.25,2,8,8,0,0,1-.47,2.7,7.89,7.89,0,0,0,0,5.62,6.41,6.41,0,0,1,.49,2.8,6.63,6.63,0,0,1-.34,1.86,8.82,8.82,0,0,0,.11,5.4,4.71,4.71,0,0,1,.23,1.47,5,5,0,0,1-.11,1,8.92,8.92,0,0,0,.65,5.43,8,8,0,0,1,.65,3.13,7.77,7.77,0,0,1-.51,2.79,8,8,0,0,0-.14,5.86,5.93,5.93,0,0,1,.43,2.19,5.81,5.81,0,0,1-.44,2.21,8.14,8.14,0,0,0,.13,6,7.73,7.73,0,0,1,.53,2.82,7.83,7.83,0,0,1-1.3,4.33,4.48,4.48,0,0,0-.19,4.24,4.52,4.52,0,0,1,.3,1.65,4.78,4.78,0,0,1-.32,1.75,6.68,6.68,0,0,0,.57,5.51,7.83,7.83,0,0,1,.63,5.9,9.37,9.37,0,0,0,.47,6.69,5.8,5.8,0,0,1-.22,5.47Z" style="fill:#0e8fbe"/><path d="M0,5V145a5,5,0,0,0,5,5H145a5,5,0,0,0,5-5V5a5,5,0,0,0-5-5H5A5,5,0,0,0,0,5ZM72.93,145.42H4.58V77.07H72.93Zm0-72.49H4.58V4.58H72.93Zm72.49,72.49H77.07V77.07h68.35Zm0-72.49H77.07V4.58h68.35Z" style="fill:#9b7244"/><path d="M44.16,61.14c0,2.22-1.27,3.36-2.82,3.36s-2.82-1.14-2.82-3.36,2.82-6.69,2.82-6.69S44.16,58.91,44.16,61.14Z" style="fill:#0e8fbe"/><path d="M66.78,36.72c0,2.22-1.26,3.36-2.81,3.36s-2.82-1.14-2.82-3.36S64,30,64,30,66.78,34.5,66.78,36.72Z" style="fill:#0e8fbe"/><path d="M128.06,28.24c0,2.22-1.27,3.37-2.82,3.37s-2.82-1.15-2.82-3.37,2.82-6.68,2.82-6.68S128.06,26,128.06,28.24Z" style="fill:#0e8fbe"/><path d="M108.46,56.11c0,2.22-1.26,3.37-2.82,3.37s-2.82-1.15-2.82-3.37,2.82-6.68,2.82-6.68S108.46,53.89,108.46,56.11Z" style="fill:#0e8fbe"/><path d="M90.1,28.24c0,2.22-1.26,3.37-2.82,3.37s-2.82-1.15-2.82-3.37,2.82-6.68,2.82-6.68S90.1,26,90.1,28.24Z" style="fill:#0e8fbe"/><path d="M22.75,26.68c0,2.22-1.26,3.36-2.82,3.36s-2.81-1.14-2.81-3.36S19.93,20,19.93,20,22.75,24.45,22.75,26.68Z" style="fill:#0e8fbe"/><path d="M89.19,97.05c0,2.22-1.26,3.36-2.82,3.36s-2.82-1.14-2.82-3.36,2.82-6.69,2.82-6.69S89.19,94.83,89.19,97.05Z" style="fill:#0e8fbe"/><path d="M133.69,103.58c0,2.22-1.26,3.36-2.82,3.36s-2.81-1.14-2.81-3.36,2.81-6.69,2.81-6.69S133.69,101.36,133.69,103.58Z" style="fill:#0e8fbe"/><path d="M111.28,127.12c0,2.23-1.26,3.37-2.82,3.37s-2.82-1.14-2.82-3.37,2.82-6.68,2.82-6.68S111.28,124.9,111.28,127.12Z" style="fill:#0e8fbe"/><path d="M21.56,95.19c0,2.22-1.27,3.37-2.82,3.37s-2.82-1.15-2.82-3.37,2.82-6.68,2.82-6.68S21.56,93,21.56,95.19Z" style="fill:#0e8fbe"/><path d="M62.84,108.6c0,2.22-1.26,3.36-2.82,3.36s-2.82-1.14-2.82-3.36S60,101.92,60,101.92,62.84,106.38,62.84,108.6Z" style="fill:#0e8fbe"/><path d="M38.52,132.15c0,2.22-1.26,3.36-2.82,3.36s-2.82-1.14-2.82-3.36,2.82-6.69,2.82-6.69S38.52,129.93,38.52,132.15Z" style="fill:#0e8fbe"/></g></svg>