<svg xmlns="http://www.w3.org/2000/svg" viewBox="0 0 150 150"><g id="Layer_13" data-name="Layer 13"><rect x="-0.25" width="150.25" height="150.25" rx="5" style="fill:#414042"/><path d="M72,18.88,9.23,127.56a5.56,5.56,0,0,0,4.82,8.35H139.54a5.56,5.56,0,0,0,4.82-8.35L81.62,18.88A5.57,5.57,0,0,0,72,18.88Z" style="fill:#eaf4f1;opacity:0.8"/><polygon points="116.45 79.21 38.13 77.48 40.19 73.93 108.48 65.4 116.45 79.21" style="fill:#fff"/><polygon points="40.19 73.93 0 87.81 0 90.6 38.13 77.48 40.19 73.93" style="fill:#fff"/><polygon points="108.48 65.4 150 41.77 150 45.88 109.81 67.7 108.48 65.4" style="fill:#ed1c24"/><polygon points="150 45.88 109.81 67.7 111.27 70.25 150 49.72 150 45.88" style="fill:#f7941d"/><polygon points="150 49.72 111.27 70.25 112.46 72.31 150 53.49 150 49.72" style="fill:#fff200"/><polygon points="112.46 72.31 150 53.49 150 57.47 114.02 75 112.46 72.31" style="fill:#39b54a"/><polygon points="114.02 75 115.34 77.35 150 60.49 150 57.47 114.02 75" style="fill:#00aeef"/><polygon points="115.34 77.35 116.45 79.21 150 64.37 150 60.49 115.34 77.35" style="fill:#92278f"/></g></svg>