<svg xmlns="http://www.w3.org/2000/svg" viewBox="0 0 150 150"><g style="isolation:isolate"><g id="hamburger"><path d="M41.44,40.19h67.12A41.44,41.44,0,0,1,150,81.63v0a0,0,0,0,1,0,0H0a0,0,0,0,1,0,0v0A41.44,41.44,0,0,1,41.44,40.19Z" style="fill:#ef8d2e"/><path d="M0,81.63H150a0,0,0,0,1,0,0v18.2a7.82,7.82,0,0,1-7.82,7.82H7.82A7.82,7.82,0,0,1,0,99.84V81.63A0,0,0,0,1,0,81.63Z" style="fill:#ef8d2e"/><path d="M142.18,102.47H7.82A7.82,7.82,0,0,1,0,94.65v4.46a7.82,7.82,0,0,0,7.82,7.82H142.18A7.82,7.82,0,0,0,150,99.11V94.65A7.82,7.82,0,0,1,142.18,102.47Z" style="fill:#eb7923"/><rect y="81.63" width="150" height="2.23" style="fill:#eb7923"/><circle cx="28.41" cy="47.63" r="1.53" style="fill:#fff"/><circle cx="39.44" cy="58.65" r="1.53" style="fill:#fff"/><circle cx="14.46" cy="58.09" r="1.53" style="fill:#fff"/><circle cx="50.88" cy="46.09" r="1.53" style="fill:#fff"/><circle cx="117.3" cy="46.09" r="1.53" style="fill:#fff"/><circle cx="65.95" cy="60.19" r="1.53" style="fill:#fff"/><circle cx="77.25" cy="43.58" r="1.53" style="fill:#fff"/><circle cx="96.92" cy="45.12" r="1.53" style="fill:#fff"/><circle cx="82.83" cy="57.12" r="1.53" style="fill:#fff"/><circle cx="102.92" cy="58.65" r="1.53" style="fill:#fff"/><circle cx="129.02" cy="60.19" r="1.53" style="fill:#fff"/><path d="M41.27,44.56H108.4a41.45,41.45,0,0,1,41.21,37.07h.23A41.45,41.45,0,0,0,108.4,40.19H41.27A41.44,41.44,0,0,0-.16,81.63H.07A41.43,41.43,0,0,1,41.27,44.56Z" style="fill:#f3a232;mix-blend-mode:lighten"/></g></g></svg>