<svg xmlns="http://www.w3.org/2000/svg" viewBox="0 0 150 150"><g style="isolation:isolate"><g id="plant"><path d="M5,75H145a5,5,0,0,1,5,5v8.87a0,0,0,0,1,0,0H0a0,0,0,0,1,0,0V80A5,5,0,0,1,5,75Z" style="fill:#79a03f"/><path d="M0,88.87H150a0,0,0,0,1,0,0v55.88a5.25,5.25,0,0,1-5.25,5.25H5.25A5.25,5.25,0,0,1,0,144.75V88.87A0,0,0,0,1,0,88.87Z" style="fill:#4c3019"/><path d="M80.55,15.57c0,8.17-2.43,11.27-5.44,11.27s-5.44-3.1-5.44-11.27S75.11,0,75.11,0,80.55,7.4,80.55,15.57Z" style="fill:#97bf3d"/><path d="M97.74,44c-6.44,3.3-10,2.38-11.36-.29s0-6.09,6.39-9.39,14.74-1.45,14.74-1.45S104.17,40.68,97.74,44Z" style="fill:#97bf3d"/><path d="M42.89,19c7.08,2,9.12,5.07,8.31,8S47.06,31.42,40,29.45s-12-9-12-9S35.8,17,42.89,19Z" style="fill:#97bf3d"/><path d="M51.36,35c5.79-3.74,9.3-3.12,10.94-.59s.76,6-5,9.73-14,2.57-14,2.57S45.58,38.79,51.36,35Z" style="fill:#97bf3d"/><path d="M64.65,21.62c-1.1,5.34-3.11,7-5.08,6.63s-3.13-2.76-2-8.1,5.67-9.43,5.67-9.43S65.76,16.29,64.65,21.62Z" style="fill:#97bf3d"/><path d="M84.37,55c-2.29-2.56-1.94-4.62-.45-6s3.58-1.45,5.86,1.11,1.66,7.3,1.66,7.3S86.66,57.58,84.37,55Z" style="fill:#97bf3d"/><polygon points="73.47 75 76.76 75 75.03 7.86 73.47 75" style="fill:#c1d82f"/><path d="M74.56,40.05l-4.64-3.24c-1.55-1.08-3.07-2.17-4.65-3.15a57.12,57.12,0,0,0-10-5c-3.48-1.37-7.15-2.22-10.79-3.25l-10.91-3,11,2.5c3.66.86,7.39,1.55,11,2.78A60,60,0,0,1,66,32.37c1.67.94,3.26,2,4.85,3l4.78,3Z" style="fill:#c1d82f"/><polygon points="58.62 29.66 61.48 16.89 59.6 29.84 58.62 29.66" style="fill:#c1d82f"/><polygon points="65.2 33.02 46.69 44.05 64.67 32.17 65.2 33.02" style="fill:#c1d82f"/><path d="M74.42,52.54c2-1.82,4-3.73,6.23-5.48a63.63,63.63,0,0,1,6.83-4.75,65.82,65.82,0,0,1,7.37-3.8l7.56-3.3L95.07,39a61.16,61.16,0,0,0-13.45,9.24C79.62,50,77.75,52,75.8,54Z" style="fill:#c1d82f"/><path d="M81.39,47.42c1-1.76.27-.49.48-.88h0l0,0,.07,0,.13.1.26.18.51.39c.33.26.65.53,1,.82A15.51,15.51,0,0,1,85.56,50,16.29,16.29,0,0,1,88,54.19a16.4,16.4,0,0,0-3.14-3.54A16.12,16.12,0,0,0,83,49.32c-.33-.2-.67-.38-1-.55l-.51-.25-.26-.11-.13,0-.07,0,0,0h0C81.13,47.91,80.44,49.18,81.39,47.42Z" style="fill:#c1d82f"/><path d="M58.56,104.32a31.83,31.83,0,0,0-.59,3.56,18,18,0,0,0,0,3.59,18.63,18.63,0,0,0,.74,3.53l1.16,3.47-1.39-3.38a18.87,18.87,0,0,1-1.29-7.25,31.42,31.42,0,0,1,.36-3.68Z" style="fill:#8b5e3c"/><path d="M119.26,120a24.94,24.94,0,0,0-3.64-4.25,26.84,26.84,0,0,0-8.91-5.6c-.19-.18-.37-.38-.57-.55a24.58,24.58,0,0,0-3.49-2.58c-1.24-.75-2.44-1.42-3.66-2.14l-7.3-4.21a26.34,26.34,0,0,0-8.2-3.06l-7-1.59.15-7.1h-3l.16,7.49a60.94,60.94,0,0,0-6.42,2.11,52.15,52.15,0,0,0-7.06,3.41,53.88,53.88,0,0,0-6.46,4.38l-.9.7a30.12,30.12,0,0,0-7.36,2.88,28.14,28.14,0,0,0-7.28,5.69c-1,1.15-1.91,2.42-2.83,3.63s-1.79,2.51-2.61,3.79l-5,7.7,5.21-7.56c.87-1.26,1.73-2.5,2.7-3.69s1.87-2.43,2.91-3.52a27.55,27.55,0,0,1,7.25-5.39A29.82,29.82,0,0,1,51,108.42l-.25.19c-1,.8-2,1.51-3.06,2.41a15.62,15.62,0,0,0-2.6,3,32,32,0,0,0-1.87,3.44,38.16,38.16,0,0,0-2.62,7.31,38.76,38.76,0,0,0-1.09,7.65c-.08,2.57.06,5.13.09,7.69.08-2.56,0-5.13.24-7.67a37.3,37.3,0,0,1,1.4-7.5,36.76,36.76,0,0,1,2.86-7,32.64,32.64,0,0,1,1.94-3.24,14.53,14.53,0,0,1,2.42-2.6c.39,1,.76,2,1.07,3.07a39.33,39.33,0,0,1,1,4.19,39,39,0,0,1,.53,4.31l.26,4.38.24-4.38a36.4,36.4,0,0,0,0-4.43,41.64,41.64,0,0,0-.54-4.42c-.23-1.32-.57-2.65-.91-3.93.51-.36,1-.72,1.54-1.09l3.15-2.21a52.79,52.79,0,0,1,6.43-4,50.16,50.16,0,0,1,6.91-3c1.42-.5,2.86-.91,4.32-1.28l-1.16,2.37c-.81,1.72-1.68,3.32-2.45,5.19a23.71,23.71,0,0,0-1.5,11.55c.11,1,.33,1.93.46,2.81a22.1,22.1,0,0,1-.28,8.23,47.22,47.22,0,0,1-1.73,5.33l-1.91,5.31L66.16,135a45.34,45.34,0,0,0,2.1-5.28,23,23,0,0,0,.93-5.67,21.65,21.65,0,0,0-.07-2.9c-.08-1-.23-1.87-.27-2.78a22.32,22.32,0,0,1,.48-5.83c.19.27.38.54.55.83A30.09,30.09,0,0,1,73.64,122a31,31,0,0,1,1,6.3c.07,2.14.06,4.31.1,6.46.13-2.16.3-4.29.4-6.46a32.33,32.33,0,0,0-.47-6.51,33.4,33.4,0,0,0-1.82-6.33c-.43-1-.88-2-1.4-3-.26-.49-.54-1-.82-1.45-.14-.24-.29-.47-.44-.71l-.14-.22a22.27,22.27,0,0,1,.92-2.26c.77-1.57,1.8-3.23,2.71-4.86L76,98.87l7,1.26c-.24,1.07-.47,2.15-.65,3.29a28.17,28.17,0,0,0-.29,4.77,26.66,26.66,0,0,0,.54,4.72c.28,1.57.85,3.07,1.21,4.52a26.67,26.67,0,0,1,.66,9.09l-.83,9.25,1.32-9.19a27.32,27.32,0,0,0-.17-9.37c-.31-1.57-.77-3-1-4.51a26.27,26.27,0,0,1-.27-4.51,25.73,25.73,0,0,1,.52-4.47c.22-1,.52-2.14.81-3.23a22.88,22.88,0,0,1,5.76,2.1l2.82,1.47a22.72,22.72,0,0,1,1.34,4.77,21.66,21.66,0,0,1,.18,5.46,22,22,0,0,1-1.2,5.4L91.81,125l2.41-5.1a23,23,0,0,0,2-11.22,22,22,0,0,0-.51-3.4l2.34,1.22c1.23.65,2.52,1.29,3.71,1.94a23.18,23.18,0,0,1,3.37,2.28,23.62,23.62,0,0,1,8.31,13.83,24,24,0,0,1,.15,8.28c-.5,2.75-1.09,5.51-1.64,8.26.67-2.73,1.38-5.44,2-8.19a24.48,24.48,0,0,0-5.75-21.19,26.93,26.93,0,0,1,7,4.39,24.35,24.35,0,0,1,3.77,4,23.86,23.86,0,0,1,2.62,4.88A23.25,23.25,0,0,0,119.26,120Z" style="fill:#8b5e3c"/><rect y="88.87" width="150" height="5.62" style="fill:#17110e;opacity:0.4;mix-blend-mode:darken"/><path d="M33,131c0,2.22-1.26,3.37-2.82,3.37s-2.82-1.15-2.82-3.37,2.82-6.68,2.82-6.68S33,128.79,33,131Z" style="fill:#3cc7f4"/><path d="M42.53,137c0,2.22-1.26,3.36-2.82,3.36S36.9,139.25,36.9,137s2.81-6.68,2.81-6.68S42.53,134.81,42.53,137Z" style="fill:#3cc7f4"/><path d="M54.25,127.28c0,2.23-1.26,3.37-2.81,3.37s-2.82-1.14-2.82-3.37,2.82-6.68,2.82-6.68S54.25,125.06,54.25,127.28Z" style="fill:#3cc7f4"/><path d="M61.55,121.09c0,2.23-1.26,3.37-2.82,3.37s-2.82-1.14-2.82-3.37,2.82-6.68,2.82-6.68S61.55,118.87,61.55,121.09Z" style="fill:#3cc7f4"/><path d="M68.25,141.06c0,2.22-1.26,3.36-2.82,3.36s-2.82-1.14-2.82-3.36,2.82-6.68,2.82-6.68S68.25,138.84,68.25,141.06Z" style="fill:#3cc7f4"/><path d="M77.72,136c0,2.22-1.26,3.36-2.82,3.36s-2.82-1.14-2.82-3.36,2.82-6.69,2.82-6.69S77.72,133.81,77.72,136Z" style="fill:#3cc7f4"/><path d="M86.81,134.22c0,2.22-1.27,3.36-2.82,3.36s-2.82-1.14-2.82-3.36S84,127.53,84,127.53,86.81,132,86.81,134.22Z" style="fill:#3cc7f4"/><path d="M97.16,125.15c0,2.22-1.26,3.37-2.82,3.37s-2.82-1.15-2.82-3.37,2.82-6.68,2.82-6.68S97.16,122.93,97.16,125.15Z" style="fill:#3cc7f4"/><path d="M116.14,140.36c0,2.22-1.27,3.36-2.82,3.36s-2.82-1.14-2.82-3.36,2.82-6.68,2.82-6.68S116.14,138.14,116.14,140.36Z" style="fill:#3cc7f4"/><path d="M123.81,129.2c0,2.22-1.26,3.36-2.82,3.36s-2.82-1.14-2.82-3.36,2.82-6.69,2.82-6.69S123.81,127,123.81,129.2Z" style="fill:#3cc7f4"/></g></g></svg>