<svg xmlns="http://www.w3.org/2000/svg" xmlns:xlink="http://www.w3.org/1999/xlink" viewBox="0 0 150 150"><defs><clipPath id="clip-path"><rect x="75.06" y="20.85" width="35.09" height="35.09" rx="4.82" transform="translate(31.56 -41.12) rotate(29.97)" style="fill:none"/></clipPath><clipPath id="clip-path-2"><rect x="57.29" y="55.52" width="35.09" height="35.09" rx="4.82" transform="translate(46.5 -27.61) rotate(29.97)" style="fill:none"/></clipPath><clipPath id="clip-path-3"><rect x="35.42" y="18.87" width="35.09" height="35.09" rx="4.82" transform="translate(-6.91 13.03) rotate(-13.18)" style="fill:none"/></clipPath></defs><g style="isolation:isolate"><g id="glassofwater"><path d="M74.84,0H27.43a7.94,7.94,0,0,0-7.81,9.33l24,133.94a7.94,7.94,0,0,0,7.81,6.53H98.24a7.94,7.94,0,0,0,7.81-6.53l24-133.94A7.94,7.94,0,0,0,122.24,0Z" style="fill:#e8eae9"/><path d="M74.84,36.41H36.79a1.93,1.93,0,0,0-1.9,2.26l17.22,98.79a1.94,1.94,0,0,0,1.91,1.6H95.65a1.94,1.94,0,0,0,1.91-1.6l17.22-98.79a1.93,1.93,0,0,0-1.9-2.26Z" style="fill:#3cc7f4"/><rect x="75.06" y="20.85" width="35.09" height="35.09" rx="4.82" transform="translate(31.56 -41.12) rotate(29.97)" style="fill:#a3ddec"/><rect x="76.83" y="22.63" width="31.55" height="31.55" rx="4.82" transform="matrix(0.87, 0.5, -0.5, 0.87, 31.56, -41.12)" style="fill:#e1f2f2"/><rect x="76.83" y="22.63" width="31.55" height="31.55" rx="11.69" transform="translate(31.56 -41.12) rotate(29.97)" style="fill:#bee6f1"/><g style="opacity:0.30000000000000004"><g style="clip-path:url(#clip-path)"><rect x="63.32" y="27.46" width="52.8" height="3.26" transform="translate(-4.48 24.27) rotate(-15.03)" style="fill:#fff"/><rect x="68.08" y="45.21" width="52.8" height="3.26" transform="translate(-8.92 26.11) rotate(-15.03)" style="fill:#fff"/><rect x="65.7" y="33.8" width="52.8" height="8.34" transform="translate(-6.7 25.19) rotate(-15.03)" style="fill:#fff"/></g></g><rect x="57.29" y="55.52" width="35.09" height="35.09" rx="4.82" transform="translate(46.5 -27.61) rotate(29.97)" style="fill:#a3ddec"/><rect x="59.06" y="57.29" width="31.55" height="31.55" rx="4.82" transform="translate(46.5 -27.61) rotate(29.97)" style="fill:#e1f2f2"/><rect x="59.06" y="57.29" width="31.55" height="31.55" rx="11.69" transform="matrix(0.87, 0.5, -0.5, 0.87, 46.5, -27.61)" style="fill:#bee6f1"/><g style="opacity:0.30000000000000004"><g style="clip-path:url(#clip-path-2)"><rect x="45.54" y="62.13" width="52.8" height="3.26" transform="translate(-14.08 20.84) rotate(-15.03)" style="fill:#fff"/><rect x="50.31" y="79.87" width="52.8" height="3.26" transform="translate(-18.52 22.69) rotate(-15.03)" style="fill:#fff"/><rect x="47.93" y="68.46" width="52.8" height="8.34" transform="translate(-16.3 21.77) rotate(-15.03)" style="fill:#fff"/></g></g><rect x="35.42" y="18.87" width="35.09" height="35.09" rx="4.82" transform="translate(-6.91 13.03) rotate(-13.18)" style="fill:#a3ddec"/><rect x="37.19" y="20.64" width="31.55" height="31.55" rx="4.82" transform="translate(-6.91 13.03) rotate(-13.18)" style="fill:#e1f2f2"/><rect x="37.19" y="20.64" width="31.55" height="31.55" rx="11.69" transform="translate(-6.91 13.03) rotate(-13.18)" style="fill:#bee6f1"/><g style="opacity:0.30000000000000004"><g style="clip-path:url(#clip-path-3)"><rect x="18.09" y="29.97" width="52.8" height="3.26" transform="translate(-5.82 52.74) rotate(-58.18)" style="fill:#fff"/><rect x="33.7" y="39.66" width="52.8" height="3.26" transform="translate(-6.67 70.58) rotate(-58.18)" style="fill:#fff"/><rect x="25.89" y="32.27" width="52.8" height="8.34" transform="translate(-6.24 61.66) rotate(-58.18)" style="fill:#fff"/></g></g><path d="M122.57,0H104.41l-4,50.34c-.31,3.95-.48,7.9-.63,11.86A136.48,136.48,0,0,1,86.9,115.38L68.15,149.8H98.57a7.94,7.94,0,0,0,7.81-6.53l24-133.94A7.94,7.94,0,0,0,122.57,0Z" style="fill:#d1d3d2;opacity:0.8;mix-blend-mode:darken"/><path d="M38.59,7.13h9.64a3,3,0,0,1,3,2.87L55,78.6a3,3,0,0,1-6,.74L35.61,10.74A3,3,0,0,1,38.59,7.13Z" style="fill:#fff;opacity:0.4;mix-blend-mode:lighten"/></g></g></svg>