<svg xmlns="http://www.w3.org/2000/svg" viewBox="0 0 150 150"><g style="isolation:isolate"><g id="hamburger"><path d="M41.58,18.11h67A41.42,41.42,0,0,1,150,59.53v0a0,0,0,0,1,0,0H.17a0,0,0,0,1,0,0v0A41.42,41.42,0,0,1,41.58,18.11Z" style="fill:#ef8d2e"/><path d="M0,105.12H150a0,0,0,0,1,0,0v18.2a7.82,7.82,0,0,1-7.82,7.82H7.82A7.82,7.82,0,0,1,0,123.32v-18.2a0,0,0,0,1,0,0Z" style="fill:#ef8d2e"/><path d="M142.18,126H7.82A7.82,7.82,0,0,1,0,118.13v4.46a7.82,7.82,0,0,0,7.82,7.83H142.18a7.82,7.82,0,0,0,7.82-7.83v-4.46A7.82,7.82,0,0,1,142.18,126Z" style="fill:#eb7923"/><rect y="105.12" width="150" height="2.23" style="fill:#eb7923"/><circle cx="28.55" cy="25.55" r="1.53" style="fill:#fff"/><circle cx="39.56" cy="36.57" r="1.53" style="fill:#fff"/><circle cx="14.61" cy="36.01" r="1.53" style="fill:#fff"/><circle cx="50.99" cy="24.01" r="1.53" style="fill:#fff"/><circle cx="117.33" cy="24.01" r="1.53" style="fill:#fff"/><circle cx="66.04" cy="38.1" r="1.53" style="fill:#fff"/><circle cx="77.33" cy="21.5" r="1.53" style="fill:#fff"/><circle cx="96.98" cy="23.03" r="1.53" style="fill:#fff"/><circle cx="82.9" cy="35.03" r="1.53" style="fill:#fff"/><circle cx="102.98" cy="36.57" r="1.53" style="fill:#fff"/><circle cx="129.04" cy="38.1" r="1.53" style="fill:#fff"/><path d="M41.39,22.48h67.05a41.42,41.42,0,0,1,41.17,37.07h.23a41.43,41.43,0,0,0-41.4-41.44h-67A41.42,41.42,0,0,0,0,59.55H.23A41.42,41.42,0,0,1,41.39,22.48Z" style="fill:#f3a232;mix-blend-mode:lighten"/><rect y="82.34" width="150" height="22.78" rx="3.19" style="fill:#603913"/><rect x="-0.16" y="70.71" width="150.16" height="11.63" rx="3" style="fill:#be1e2d"/><path d="M8.76,82.34H139L35.32,109.69a9,9,0,0,1-8.47-2.38Z" style="fill:#f9ed32"/><polygon points="129.09 84.96 139.03 82.34 8.76 82.34 10.66 84.96 129.09 84.96" style="fill:#d7df23"/><rect y="66.8" width="150" height="3.91" rx="1" style="fill:#ee2a7b"/><path d="M0,59.55v5.76H0v7.26a4,4,0,0,0,4,4H4a4,4,0,0,0,4-4V70.85a4,4,0,0,1,4-4h0a4,4,0,0,1,4,4h0a2.38,2.38,0,0,0,2.37,2.37h3.17a2.37,2.37,0,0,0,2.36-2.37v0a4,4,0,0,1,4-4h0a4,4,0,0,1,4,4v1.74a4,4,0,0,0,3.95,4h0a4,4,0,0,0,4-4V70.85a4.05,4.05,0,0,1,4-4h0a4,4,0,0,1,4.05,4h0a2.37,2.37,0,0,0,2.36,2.37h3.4a2.14,2.14,0,0,0,2.14-2.14h0a4.28,4.28,0,0,1,4.28-4.28h0a4.28,4.28,0,0,1,4.28,4.28v1.49a4,4,0,0,0,4,4h0a4,4,0,0,0,4-4V70.85a4,4,0,0,1,4-4h0a4.05,4.05,0,0,1,4,4h0a2.37,2.37,0,0,0,2.36,2.37h3.65a1.89,1.89,0,0,0,1.89-1.89h0a4.52,4.52,0,0,1,4.52-4.53h0a4.53,4.53,0,0,1,4.53,4.53v1.24a4,4,0,0,0,4,4h0a4,4,0,0,0,4-4V70.85a4,4,0,0,1,4-4h0a4,4,0,0,1,4,4h0a2.38,2.38,0,0,0,2.37,2.37h3.16a2.38,2.38,0,0,0,2.37-2.37V69.23a2.43,2.43,0,0,1,2.43-2.43h0a2.43,2.43,0,0,1,2.43,2.43v3.34a4,4,0,0,0,4,4h0a4,4,0,0,0,3.95-4V70.85a4,4,0,0,1,4-4h0a4,4,0,0,1,4,4h0a2.38,2.38,0,0,0,2.37,2.37h1.58a4,4,0,0,0,3.95-4V59.55Z" style="fill:#8dc63f"/><rect y="65.31" height="1.48" style="fill:#39b54a"/><rect y="59.55" width="150" height="1.48" style="fill:#39b54a"/></g></g></svg>