<svg xmlns="http://www.w3.org/2000/svg" viewBox="0 0 150 150"><g id="lightning"><path d="M65.16.36h41.43a5.13,5.13,0,0,1,4.57,7.44L89,51.56A5.13,5.13,0,0,0,93.58,59h16.64a5.12,5.12,0,0,1,4.14,8.14L55.55,147.86c-3.45,4.75-10.88.89-9-4.67L63.72,93a5.13,5.13,0,0,0-4.85-6.78h-19A5.12,5.12,0,0,1,35,79.43L60.3,3.86A5.13,5.13,0,0,1,65.16.36Z" style="fill:#fadf00"/><path d="M110.22,59H104.6a5.12,5.12,0,0,1,4.14,8.14l-58.8,80.72a5.56,5.56,0,0,1-1.3,1.27,5,5,0,0,0,6.91-1.27l58.81-80.72A5.12,5.12,0,0,0,110.22,59Z" style="fill:#fbac18"/><path d="M105.55,7.8,83.4,51.56A5.12,5.12,0,0,0,88,59h5.61A5.13,5.13,0,0,1,89,51.56L111.16,7.8A5.13,5.13,0,0,0,106.59.36H101A5.13,5.13,0,0,1,105.55,7.8Z" style="fill:#fbac18"/></g></svg>