<svg xmlns="http://www.w3.org/2000/svg" viewBox="0 0 150 150"><g id="boilingwater"><ellipse cx="75.06" cy="59.07" rx="61" ry="12.57" style="fill:#e84325"/><ellipse cx="74.68" cy="59.07" rx="58.12" ry="9.9" style="fill:#551512"/><path d="M18.74,61.76s22.2-7.26,59.4-6.3,52.45,6.32,52.45,6.32S122.93,68.47,78,69C33.77,71,18.74,61.76,18.74,61.76Z" style="fill:#77cbee"/><path d="M14.51,60.61l2,69.56a3,3,0,0,0,1.31,2.42C23,136.13,43.57,148.68,75,147.33c0,0,38.3,1.16,57.25-14.84a3.07,3.07,0,0,0,1.1-2.25l2.27-69.63s-4,8.36-60.54,11C75.06,71.64,23.48,71.77,14.51,60.61Z" style="fill:#e84325"/><path d="M0,75.4v1.92a2.56,2.56,0,0,0,1.77,2.43L16,84.3a1.47,1.47,0,0,0,1.82-.85l.15-.38a10.36,10.36,0,0,0-.4-8.56h0a1.48,1.48,0,0,0-1.22-.8L2.71,72.85A2.56,2.56,0,0,0,0,75.4Z" style="fill:#b62725"/><path d="M149.77,75.4v1.92A2.55,2.55,0,0,1,148,79.75L133.74,84.3a1.47,1.47,0,0,1-1.82-.85l-.15-.38a10.36,10.36,0,0,1,.4-8.56h0a1.48,1.48,0,0,1,1.22-.8l13.67-.86A2.56,2.56,0,0,1,149.77,75.4Z" style="fill:#b62725"/><path d="M39,62.63a.57.57,0,0,0,.57-.65,3.34,3.34,0,0,0-3-3.16,3.36,3.36,0,0,0-3,3.16.59.59,0,0,0,.58.65Z" style="fill:#b7e3f0"/><path d="M74.86,59.72a.56.56,0,0,0,.57-.64,3,3,0,1,0-6,0,.58.58,0,0,0,.58.64Z" style="fill:#b7e3f0"/><path d="M94.55,66a.57.57,0,0,0,.57-.64,3,3,0,1,0-6,0,.57.57,0,0,0,.57.64Z" style="fill:#b7e3f0"/><path d="M111.22,63.69a.58.58,0,0,0,.58-.64,3,3,0,1,0-6,0,.56.56,0,0,0,.57.64Z" style="fill:#b7e3f0"/><path d="M63.08,62.63a1.5,1.5,0,0,0,1.47-1.8c-.7-3.62-3.47-6.33-6.79-6.33S51.68,57.21,51,60.83a1.5,1.5,0,0,0,1.47,1.8Z" style="fill:#b7e3f0"/><path d="M83.39,66a1.26,1.26,0,0,0,1.21-1.61,4.91,4.91,0,0,0-9.54,0A1.26,1.26,0,0,0,76.26,66Z" style="fill:#b7e3f0"/><path d="M99.67,59.88a1.26,1.26,0,0,0,1.2-1.62,4.91,4.91,0,0,0-9.54,0,1.27,1.27,0,0,0,1.21,1.62Z" style="fill:#b7e3f0"/><path d="M115.88,13.65s3.52-6.41,3.34-11.83c0,0,9.6,12.46,9.18,26.48A24,24,0,0,1,124,41.16c-2.94,4.26-7.55,12.12-6,17.91,0,0-16.7-17.87-8.12-35.94Z" style="fill:#d1d3d4;opacity:0.5"/><path d="M73.42,13.65S77,7.24,76.77,1.82c0,0,9.59,12.46,9.17,26.48a24,24,0,0,1-4.39,12.86c-3,4.26-7.56,12.12-6,17.91,0,0-16.71-17.87-8.13-35.94Z" style="fill:#d1d3d4;opacity:0.5"/><path d="M38.42,13.65s3.52-6.41,3.34-11.83c0,0,9.6,12.46,9.18,26.48a24.05,24.05,0,0,1-4.39,12.86c-2.95,4.26-7.56,12.12-6,17.91,0,0-16.71-17.87-8.13-35.94Z" style="fill:#d1d3d4;opacity:0.5"/></g></svg>