<svg id="distilled" xmlns="http://www.w3.org/2000/svg" viewBox="0 0 150 150"><path d="M67.12,0H82.55A1.49,1.49,0,0,1,84,1.49V12.81a0,0,0,0,1,0,0H65.63a0,0,0,0,1,0,0V1.49A1.49,1.49,0,0,1,67.12,0Z" style="fill:#c4e0f5"/><path d="M74.84,18.38h0a45,45,0,0,1,45,45v74.5A12.13,12.13,0,0,1,107.7,150H42a12.13,12.13,0,0,1-12.13-12.13V63.37A45,45,0,0,1,74.84,18.38Z" style="fill:#7ac1eb"/><path d="M107.7,148.05H42a12.13,12.13,0,0,1-12.13-12.13v2A12.13,12.13,0,0,0,42,150H107.7a12.13,12.13,0,0,0,12.13-12.13v-2A12.13,12.13,0,0,1,107.7,148.05Z" style="fill:#66a1c5"/><path d="M65.59,12.81H84.08a1.49,1.49,0,0,1,1.49,1.49V20a0,0,0,0,1,0,0H64.1a0,0,0,0,1,0,0V14.3A1.49,1.49,0,0,1,65.59,12.81Z" style="fill:#0aaae2"/><rect x="64.1" y="18.88" width="21.47" height="1.12" style="fill:#0e8fbe"/><rect x="27.45" y="53.65" width="94.77" height="10.5" rx="3.43" style="fill:#0aaae2"/><path d="M118.79,62.9H30.88a3.42,3.42,0,0,1-3.43-3.42v1.25a3.43,3.43,0,0,0,3.43,3.43h87.91a3.43,3.43,0,0,0,3.43-3.43V59.48A3.42,3.42,0,0,1,118.79,62.9Z" style="fill:#0e8fbe"/><rect x="27.45" y="80.35" width="94.77" height="10.5" rx="3.43" style="fill:#0aaae2"/><rect x="27.45" y="130.32" width="94.77" height="10.5" rx="3.43" style="fill:#0aaae2"/><rect x="29.84" y="90.85" width="89.98" height="39.64" style="fill:#f1f2f2"/><text transform="translate(55.18 104.21)" style="font-size:9.111900329589844px;fill:#0aaae2;font-family:D-DIN-Bold, D-DIN;font-weight:700"><tspan style="letter-spacing:-0.009967219703344595em">D</tspan><tspan x="5.38" y="0" style="letter-spacing:-0.004930022648966144em">I</tspan><tspan x="7.71" y="0">STILLED</tspan><tspan x="16.93" y="9.64">&amp;</tspan><tspan x="-0.87" y="19.27" style="letter-spacing:-0.009967219703344595em">D</tspan><tspan x="4.51" y="19.27">EI</tspan><tspan x="11.74" y="19.27" style="letter-spacing:-0.009967219703344595em">O</tspan><tspan x="17.11" y="19.27" style="letter-spacing:0.00010717440541230747em">NIZED</tspan></text><path d="M118.79,89.59H30.88a3.42,3.42,0,0,1-3.43-3.42v1.25a3.42,3.42,0,0,0,3.43,3.43h87.91a3.42,3.42,0,0,0,3.43-3.43V86.17A3.42,3.42,0,0,1,118.79,89.59Z" style="fill:#0e8fbe"/><path d="M118.79,139.57H30.88a3.43,3.43,0,0,1-3.43-3.43v1.26a3.42,3.42,0,0,0,3.43,3.42h87.91a3.42,3.42,0,0,0,3.43-3.42v-1.26A3.43,3.43,0,0,1,118.79,139.57Z" style="fill:#0e8fbe"/></svg>