<svg xmlns="http://www.w3.org/2000/svg" viewBox="0 0 150 150"><g id="scale"><rect x="128.67" y="52.18" width="3.81" height="8.64" style="fill:#e6e7e8"/><rect x="17.52" y="52.18" width="3.81" height="8.64" style="fill:#e6e7e8"/><polygon points="130.57 67.59 75 72.46 19.43 67.59 19.43 60.26 75 55.39 130.57 60.26 130.57 67.59" style="fill:#e6e7e8"/><polygon points="19.43 65.92 19.43 67.59 75 72.46 130.57 67.59 130.57 65.92 75 70.79 19.43 65.92" style="fill:#bcbec0"/><circle cx="130.57" cy="64.1" r="5.73" style="fill:#fadf00"/><path d="M130.57,68.15a5.71,5.71,0,0,1-5.65-4.88,5.73,5.73,0,1,0,11.31,0A5.71,5.71,0,0,1,130.57,68.15Z" style="fill:#fbac18"/><circle cx="19.43" cy="64.1" r="5.73" style="fill:#fadf00"/><path d="M19.43,68.15a5.71,5.71,0,0,1-5.66-4.88,5.73,5.73,0,1,0,11.31,0A5.71,5.71,0,0,1,19.43,68.15Z" style="fill:#fbac18"/><path d="M115.51,53.67h30.13a.7.7,0,0,0,.57-.26l3.67-4.69c.31-.39,0-.91-.57-.91H111.83c-.54,0-.87.52-.57.91l3.68,4.69A.69.69,0,0,0,115.51,53.67Z" style="fill:#fadf00"/><path d="M149.71,47.87l-3.5,4.47a.73.73,0,0,1-.57.26H115.51a.72.72,0,0,1-.57-.26l-3.5-4.47a.52.52,0,0,0-.18.79l3.68,4.7a.72.72,0,0,0,.57.26h30.13a.73.73,0,0,0,.57-.26l3.67-4.7A.52.52,0,0,0,149.71,47.87Z" style="fill:#fbac18"/><path d="M4.36,53.67H34.49a.69.69,0,0,0,.57-.26l3.68-4.69c.3-.39,0-.91-.57-.91H.69c-.55,0-.88.52-.57.91l3.67,4.69A.7.7,0,0,0,4.36,53.67Z" style="fill:#fadf00"/><path d="M38.56,47.87l-3.5,4.47a.72.72,0,0,1-.57.26H4.36a.73.73,0,0,1-.57-.26L.29,47.87a.52.52,0,0,0-.17.79l3.67,4.7a.73.73,0,0,0,.57.26H34.49a.72.72,0,0,0,.57-.26l3.68-4.7A.52.52,0,0,0,38.56,47.87Z" style="fill:#fbac18"/><path d="M66,45.47H84a2.37,2.37,0,0,1,2.37,2.37V88a0,0,0,0,1,0,0H63.64a0,0,0,0,1,0,0V47.85A2.37,2.37,0,0,1,66,45.47Z" style="fill:#754c29"/><rect x="63.64" y="86.17" width="22.72" height="1.81" style="fill:#603913"/><path d="M36.44,88h76.79a3.48,3.48,0,0,1,3.48,3.48v3.43a0,0,0,0,1,0,0H33a0,0,0,0,1,0,0V91.47A3.48,3.48,0,0,1,36.44,88Z" style="fill:#754c29"/><rect x="32.96" y="93.04" width="83.76" height="1.83" style="fill:#603913"/><path d="M29.21,94.89h91.58a3.48,3.48,0,0,1,3.48,3.48v6.52a0,0,0,0,1,0,0H25.73a0,0,0,0,1,0,0V98.37A3.48,3.48,0,0,1,29.21,94.89Z" style="fill:#754c29"/><rect x="25.73" y="102.66" width="98.54" height="2.23" style="fill:#603913"/><circle cx="75" cy="63.93" r="5.46" style="fill:#fadf00"/><path d="M75,67.85a5.46,5.46,0,0,1-5.4-4.69,6.32,6.32,0,0,0-.06.77,5.46,5.46,0,0,0,10.92,0,6.32,6.32,0,0,0-.06-.77A5.46,5.46,0,0,1,75,67.85Z" style="fill:#fbac18"/><circle cx="75" cy="63.93" r="2.67" style="fill:#e6e7e8"/><path d="M75,62.14a2.66,2.66,0,0,1,2.62,2.23,2.2,2.2,0,0,0,0-.44,2.67,2.67,0,0,0-5.34,0,2.2,2.2,0,0,0,0,.44A2.66,2.66,0,0,1,75,62.14Z" style="fill:#bcbec0"/><circle cx="130.57" cy="64.1" r="2.77" style="fill:#e6e7e8"/><circle cx="19.43" cy="64.1" r="2.77" style="fill:#e6e7e8"/><path d="M19.43,62.07a2.77,2.77,0,0,1,2.73,2.4c0-.12,0-.25,0-.37a2.77,2.77,0,1,0-5.53,0,2.33,2.33,0,0,0,0,.37A2.75,2.75,0,0,1,19.43,62.07Z" style="fill:#bcbec0"/><path d="M130.57,62.07a2.76,2.76,0,0,1,2.73,2.4,2.33,2.33,0,0,0,0-.37,2.77,2.77,0,0,0-5.54,0c0,.12,0,.25,0,.37A2.77,2.77,0,0,1,130.57,62.07Z" style="fill:#bcbec0"/></g></svg>