<svg id="distilled" xmlns="http://www.w3.org/2000/svg" viewBox="0 0 150 150"><path d="M67.12,0H82.55A1.49,1.49,0,0,1,84,1.49V12.81a0,0,0,0,1,0,0H65.63a0,0,0,0,1,0,0V1.49A1.49,1.49,0,0,1,67.12,0Z" style="fill:#c4e0f5"/><path d="M74.84,18.38h0a45,45,0,0,1,45,45v74.5A12.13,12.13,0,0,1,107.7,150H42a12.13,12.13,0,0,1-12.13-12.13V63.37A45,45,0,0,1,74.84,18.38Z" style="fill:#7ac1eb"/><path d="M107.7,148.05H42a12.13,12.13,0,0,1-12.13-12.13v2A12.13,12.13,0,0,0,42,150H107.7a12.13,12.13,0,0,0,12.13-12.13v-2A12.13,12.13,0,0,1,107.7,148.05Z" style="fill:#66a1c5"/><path d="M65.59,12.81H84.08a1.49,1.49,0,0,1,1.49,1.49V20a0,0,0,0,1,0,0H64.1a0,0,0,0,1,0,0V14.3A1.49,1.49,0,0,1,65.59,12.81Z" style="fill:#0aaae2"/><rect x="64.1" y="18.88" width="21.47" height="1.12" style="fill:#0e8fbe"/><rect x="27.45" y="53.65" width="94.77" height="10.5" rx="3.43" style="fill:#0aaae2"/><path d="M118.79,62.9H30.88a3.42,3.42,0,0,1-3.43-3.42v1.25a3.43,3.43,0,0,0,3.43,3.43h87.91a3.43,3.43,0,0,0,3.43-3.43V59.48A3.42,3.42,0,0,1,118.79,62.9Z" style="fill:#0e8fbe"/><rect x="27.45" y="80.35" width="94.77" height="10.5" rx="3.43" style="fill:#0aaae2"/><rect x="27.45" y="130.32" width="94.77" height="10.5" rx="3.43" style="fill:#0aaae2"/><rect x="29.84" y="90.85" width="89.98" height="39.64" style="fill:#f1f2f2"/><path d="M57.93,97.92a2.27,2.27,0,0,1,1.65.59,2.53,2.53,0,0,1,.61,1.91v1.28a2.56,2.56,0,0,1-.62,1.92,2.36,2.36,0,0,1-1.68.59H55.71V97.92Zm.79,4.9A1.87,1.87,0,0,0,59,101.7v-1.22a2,2,0,0,0-.26-1.16,1,1,0,0,0-.81-.36h-1v4.21h1A.94.94,0,0,0,58.72,102.82Z" style="fill:#0aaae2"/><path d="M62.34,97.92v6.29h-1.2V97.92Z" style="fill:#0aaae2"/><path d="M63.11,102.3h1.13a1.09,1.09,0,0,0,.34.73,1.26,1.26,0,0,0,.79.21c.68,0,1-.27,1-.82a.74.74,0,0,0-.2-.57,1.09,1.09,0,0,0-.63-.27l-.6-.1c-1.13-.19-1.7-.77-1.7-1.75a1.74,1.74,0,0,1,.58-1.39,2.23,2.23,0,0,1,1.53-.51,2.18,2.18,0,0,1,1.48.49,2,2,0,0,1,.61,1.39H66.3A.94.94,0,0,0,66,99a1,1,0,0,0-.69-.2,1.06,1.06,0,0,0-.71.21.78.78,0,0,0-.23.59.67.67,0,0,0,.21.52,1.41,1.41,0,0,0,.65.27l.67.12a1.68,1.68,0,0,1,1.62,1.76,1.74,1.74,0,0,1-.61,1.45,2.44,2.44,0,0,1-1.63.5,2.27,2.27,0,0,1-1.58-.5A2.13,2.13,0,0,1,63.11,102.3Z" style="fill:#0aaae2"/><path d="M70.74,99v5.25h-1.2V99H67.93v-1h4.41v1Z" style="fill:#0aaae2"/><path d="M74.18,97.92v6.29H73V97.92Z" style="fill:#0aaae2"/><path d="M76.51,97.92v5.25h2.75v1h-4V97.92Z" style="fill:#0aaae2"/><path d="M81.21,97.92v5.25H84v1H80V97.92Z" style="fill:#0aaae2"/><path d="M85.91,100.52H88.3v1H85.91v1.61h2.8v1h-4V97.92h4v1h-2.8Z" style="fill:#0aaae2"/><path d="M91.78,97.92a2.27,2.27,0,0,1,1.65.59,2.53,2.53,0,0,1,.61,1.91v1.28a2.56,2.56,0,0,1-.62,1.92,2.34,2.34,0,0,1-1.68.59H89.56V97.92Zm.8,4.9a1.87,1.87,0,0,0,.26-1.12v-1.22a2,2,0,0,0-.26-1.16,1,1,0,0,0-.81-.36h-1v4.21h1A1,1,0,0,0,92.58,102.82Z" style="fill:#0aaae2"/><path d="M77.14,112.87v1H76.7a1,1,0,0,1-.51-.12,1.88,1.88,0,0,1-.44-.45l0,0a2.24,2.24,0,0,1-.7.54,2,2,0,0,1-.83.17,1.64,1.64,0,0,1-1.23-.46,1.66,1.66,0,0,1-.44-1.2,1.93,1.93,0,0,1,.26-1,3.59,3.59,0,0,1,.86-.94,6.58,6.58,0,0,1-.52-.83,1.38,1.38,0,0,1-.14-.63,1.36,1.36,0,0,1,.2-.75,1.26,1.26,0,0,1,.55-.52,1.57,1.57,0,0,1,.79-.19,1.59,1.59,0,0,1,.79.19,1.26,1.26,0,0,1,.54.53,1.4,1.4,0,0,1,.2.73,1.45,1.45,0,0,1-.23.78,3.76,3.76,0,0,1-.8.85l.79,1.07.63-.79.71.63-.76,1,.17.23a.51.51,0,0,0,.38.24Zm-2-.43-.92-1.25a2.4,2.4,0,0,0-.48.53.89.89,0,0,0-.14.49.84.84,0,0,0,.18.56.65.65,0,0,0,.5.2.88.88,0,0,0,.42-.11A2.06,2.06,0,0,0,75.14,112.44ZM74,108.87a.89.89,0,0,0,.08.35,3.75,3.75,0,0,0,.33.53,2,2,0,0,0,.45-.47.75.75,0,0,0,.12-.41.54.54,0,0,0-.14-.38.45.45,0,0,0-.35-.15.45.45,0,0,0-.35.14A.56.56,0,0,0,74,108.87Z" style="fill:#0aaae2"/><path d="M57.06,117.2a2.3,2.3,0,0,1,1.66.58,2.59,2.59,0,0,1,.6,1.91V121a2.59,2.59,0,0,1-.62,1.92,2.33,2.33,0,0,1-1.67.58H54.85V117.2Zm.8,4.89a1.87,1.87,0,0,0,.27-1.12v-1.21a1.94,1.94,0,0,0-.27-1.16.92.92,0,0,0-.81-.36H56v4.2h1A.94.94,0,0,0,57.86,122.09Z" style="fill:#0aaae2"/><path d="M61.42,119.79H63.8v1H61.42v1.61h2.79v1h-4V117.2h4v1H61.42Z" style="fill:#0aaae2"/><path d="M66.32,117.2v6.28H65.13V117.2Z" style="fill:#0aaae2"/><path d="M67.37,119.61c0-1.67.76-2.5,2.28-2.5a2.29,2.29,0,0,1,1.66.58,2.59,2.59,0,0,1,.61,1.92v1.44A2.56,2.56,0,0,1,71.3,123a2.37,2.37,0,0,1-1.68.59c-1.5,0-2.25-.84-2.25-2.51ZM70.73,121v-1.35a2.06,2.06,0,0,0-.26-1.17,1.12,1.12,0,0,0-1.64,0,2.08,2.08,0,0,0-.26,1.18V121a1.9,1.9,0,0,0,.26,1.12,1,1,0,0,0,.82.34,1,1,0,0,0,.82-.35A1.89,1.89,0,0,0,70.73,121Z" style="fill:#0aaae2"/><path d="M77.53,123.48h-1.2L74,119.56v3.92H72.83V117.2H74l2.31,3.93V117.2h1.2Z" style="fill:#0aaae2"/><path d="M79.85,117.2v6.28H78.66V117.2Z" style="fill:#0aaae2"/><path d="M84.8,123.48H80.72v-1l2.7-4.2H80.77v-1h4v1l-2.7,4.2H84.8Z" style="fill:#0aaae2"/><path d="M86.77,119.79h2.39v1H86.77v1.61h2.8v1h-4V117.2h4v1h-2.8Z" style="fill:#0aaae2"/><path d="M92.64,117.2a2.3,2.3,0,0,1,1.66.58,2.59,2.59,0,0,1,.6,1.91V121a2.55,2.55,0,0,1-.62,1.92,2.33,2.33,0,0,1-1.67.58H90.43V117.2Zm.8,4.89a1.87,1.87,0,0,0,.27-1.12v-1.21a1.94,1.94,0,0,0-.27-1.16.92.92,0,0,0-.81-.36h-1v4.2h1A.94.94,0,0,0,93.44,122.09Z" style="fill:#0aaae2"/><path d="M118.79,89.59H30.88a3.42,3.42,0,0,1-3.43-3.42v1.25a3.42,3.42,0,0,0,3.43,3.43h87.91a3.42,3.42,0,0,0,3.43-3.43V86.17A3.42,3.42,0,0,1,118.79,89.59Z" style="fill:#0e8fbe"/><path d="M118.79,139.57H30.88a3.43,3.43,0,0,1-3.43-3.43v1.26a3.42,3.42,0,0,0,3.43,3.42h87.91a3.42,3.42,0,0,0,3.43-3.42v-1.26A3.43,3.43,0,0,1,118.79,139.57Z" style="fill:#0e8fbe"/></svg>