<svg xmlns="http://www.w3.org/2000/svg" viewBox="0 0 150 150"><g id="raingauge"><rect x="48.72" width="52.56" height="8.49" rx="4.25" style="fill:#e8eae9"/><path d="M97,7.48H53a4.23,4.23,0,0,1-4.19-3.74,4.2,4.2,0,0,0-.05.51A4.24,4.24,0,0,0,53,8.49H97a4.24,4.24,0,0,0,4.24-4.24,4.2,4.2,0,0,0,0-.51A4.23,4.23,0,0,1,97,7.48Z" style="fill:#d1d3d4"/><path d="M54.61,8.49H95.39a0,0,0,0,1,0,0V145.06A4.94,4.94,0,0,1,90.45,150H59.55a4.94,4.94,0,0,1-4.94-4.94V8.49A0,0,0,0,1,54.61,8.49Z" style="fill:#e8eae9"/><path d="M60.17,28.87H89.83A2.15,2.15,0,0,1,92,31V142.08a5.27,5.27,0,0,1-5.27,5.27H63.29A5.27,5.27,0,0,1,58,142.08V31A2.15,2.15,0,0,1,60.17,28.87Z" style="fill:#3cc7f4"/><line x1="75.15" y1="11.32" x2="75.15" y2="146.56" style="fill:none;stroke:#414042;stroke-linecap:round;stroke-miterlimit:10;stroke-width:1.08659253267255px"/><line x1="75.15" y1="130.39" x2="87.28" y2="130.39" style="fill:none;stroke:#414042;stroke-linecap:round;stroke-miterlimit:10;stroke-width:1.08659253267255px"/><line x1="62.72" y1="117.96" x2="74.85" y2="117.96" style="fill:none;stroke:#414042;stroke-linecap:round;stroke-miterlimit:10;stroke-width:1.08659253267255px"/><line x1="75.15" y1="105.73" x2="87.28" y2="105.73" style="fill:none;stroke:#414042;stroke-linecap:round;stroke-miterlimit:10;stroke-width:1.08659253267255px"/><line x1="62.72" y1="93.3" x2="74.85" y2="93.3" style="fill:none;stroke:#414042;stroke-linecap:round;stroke-miterlimit:10;stroke-width:1.08659253267255px"/><line x1="75.15" y1="81.06" x2="87.28" y2="81.06" style="fill:none;stroke:#414042;stroke-linecap:round;stroke-miterlimit:10;stroke-width:1.08659253267255px"/><line x1="62.72" y1="68.63" x2="74.85" y2="68.63" style="fill:none;stroke:#414042;stroke-linecap:round;stroke-miterlimit:10;stroke-width:1.08659253267255px"/><line x1="75.15" y1="56.4" x2="87.28" y2="56.4" style="fill:none;stroke:#414042;stroke-linecap:round;stroke-miterlimit:10;stroke-width:1.08659253267255px"/><line x1="62.72" y1="43.97" x2="74.85" y2="43.97" style="fill:none;stroke:#414042;stroke-linecap:round;stroke-miterlimit:10;stroke-width:1.08659253267255px"/><line x1="75.15" y1="31.74" x2="87.28" y2="31.74" style="fill:none;stroke:#414042;stroke-linecap:round;stroke-miterlimit:10;stroke-width:1.08659253267255px"/><line x1="62.72" y1="19.31" x2="74.85" y2="19.31" style="fill:none;stroke:#414042;stroke-linecap:round;stroke-miterlimit:10;stroke-width:1.08659253267255px"/><line x1="75.15" y1="138.07" x2="81.22" y2="138.07" style="fill:none;stroke:#414042;stroke-linecap:round;stroke-miterlimit:10;stroke-width:1.08659253267255px"/><line x1="68.78" y1="124.17" x2="74.85" y2="124.17" style="fill:none;stroke:#414042;stroke-linecap:round;stroke-miterlimit:10;stroke-width:1.08659253267255px"/><line x1="75.15" y1="112.58" x2="81.22" y2="112.58" style="fill:none;stroke:#414042;stroke-linecap:round;stroke-miterlimit:10;stroke-width:1.08659253267255px"/><line x1="68.78" y1="98.68" x2="74.85" y2="98.68" style="fill:none;stroke:#414042;stroke-linecap:round;stroke-miterlimit:10;stroke-width:1.08659253267255px"/><line x1="75.15" y1="87.08" x2="81.22" y2="87.08" style="fill:none;stroke:#414042;stroke-linecap:round;stroke-miterlimit:10;stroke-width:1.08659253267255px"/><line x1="68.78" y1="73.18" x2="74.85" y2="73.18" style="fill:none;stroke:#414042;stroke-linecap:round;stroke-miterlimit:10;stroke-width:1.08659253267255px"/><line x1="75.15" y1="63.25" x2="81.22" y2="63.25" style="fill:none;stroke:#414042;stroke-linecap:round;stroke-miterlimit:10;stroke-width:1.08659253267255px"/><line x1="68.78" y1="49.35" x2="74.85" y2="49.35" style="fill:none;stroke:#414042;stroke-linecap:round;stroke-miterlimit:10;stroke-width:1.08659253267255px"/><line x1="75.15" y1="38.69" x2="81.22" y2="38.69" style="fill:none;stroke:#414042;stroke-linecap:round;stroke-miterlimit:10;stroke-width:1.08659253267255px"/><line x1="68.78" y1="24.79" x2="74.85" y2="24.79" style="fill:none;stroke:#414042;stroke-linecap:round;stroke-miterlimit:10;stroke-width:1.08659253267255px"/></g></svg>