<svg xmlns="http://www.w3.org/2000/svg" viewBox="0 0 150 150"><g id="atom"><rect x="100.7" y="28.7" width="7.56" height="75.6" transform="translate(77.63 -54.4) rotate(45)" style="fill:#d1d3d4"/><rect x="42.26" y="29.13" width="7.56" height="75.11" transform="translate(125.74 81.28) rotate(135)" style="fill:#d1d3d4"/><circle cx="75.01" cy="94.56" r="34.65" style="fill:#e84325"/><path d="M75,123.22A34.65,34.65,0,0,1,40.5,91.57c-.08,1-.14,2-.14,3a34.65,34.65,0,1,0,69.3,0c0-1-.06-2-.14-3A34.65,34.65,0,0,1,75,123.22Z" style="fill:#b62725"/><circle cx="131.11" cy="39.68" r="18.89" style="fill:#38b5df"/><path d="M131.11,55.15A18.88,18.88,0,0,1,112.31,38c0,.56-.09,1.13-.09,1.71a18.89,18.89,0,1,0,37.78,0c0-.58,0-1.15-.09-1.71A18.87,18.87,0,0,1,131.11,55.15Z" style="fill:#0e8fbe"/><circle cx="19.04" cy="39.68" r="18.89" style="fill:#38b5df"/><path d="M19,55.15A18.89,18.89,0,0,1,.23,38c-.05.56-.08,1.13-.08,1.71a18.89,18.89,0,0,0,37.78,0c0-.58,0-1.15-.09-1.71A18.88,18.88,0,0,1,19,55.15Z" style="fill:#0e8fbe"/></g></svg>