<svg xmlns="http://www.w3.org/2000/svg" xmlns:xlink="http://www.w3.org/1999/xlink" viewBox="0 0 150 150"><defs><clipPath id="clip-path"><path d="M120.43,29.72a65.38,65.38,0,1,0,0,92.46A65.37,65.37,0,0,0,120.43,29.72ZM48.69,101.47a36.09,36.09,0,1,1,51,0A36.08,36.08,0,0,1,48.69,101.47Z" style="fill:none"/></clipPath></defs><g id="paperclip"><rect width="150" height="150" rx="5" style="fill:#3cc7f4"/><path d="M121.23,28.93a65.38,65.38,0,1,0,0,92.46A65.38,65.38,0,0,0,121.23,28.93ZM49.48,100.67a36.09,36.09,0,1,1,51,0A36.09,36.09,0,0,1,49.48,100.67Z" style="fill:#f68630"/><g style="clip-path:url(#clip-path)"><rect x="90.02" y="102.7" width="41.97" height="20.11" transform="translate(112.24 -45.47) rotate(45)" style="fill:#f9ed32"/><rect x="17.99" y="30.67" width="41.97" height="20.11" transform="translate(40.21 -15.63) rotate(45)" style="fill:#f9ed32"/></g><path d="M115.82,34.34a57.73,57.73,0,1,0,0,81.64A57.72,57.72,0,0,0,115.82,34.34ZM42.37,107.78a46.14,46.14,0,1,1,65.26,0A46.14,46.14,0,0,1,42.37,107.78Z" style="fill:#fff;opacity:0.2"/><path d="M22.08,128.08a16.22,16.22,0,0,1,0-22.92L81.21,46a1.07,1.07,0,1,1,1.52,1.51L23.59,106.68a14.06,14.06,0,1,0,19.89,19.88l84.69-84.68A11.58,11.58,0,0,0,111.8,25.51L50.62,86.68A9.28,9.28,0,0,0,63.75,99.81L99.94,63.63a1.07,1.07,0,0,1,1.51,1.51L65.27,101.33A11.43,11.43,0,0,1,49.11,85.17L110.29,24a13.71,13.71,0,1,1,19.39,19.4L45,128.08A16.21,16.21,0,0,1,22.08,128.08Z" style="fill:#fff"/><path d="M110.49,25.51,49.32,86.69a9.27,9.27,0,0,0,7.22,15.81,9.27,9.27,0,0,1-5.92-15.81L111.8,25.51a11.5,11.5,0,0,1,7.53-3.35A11.55,11.55,0,0,0,110.49,25.51Z" style="fill:#d1d3d4"/><path d="M65.27,101.33l36.18-36.19A1.06,1.06,0,0,0,100,63.56l.1.07a1.06,1.06,0,0,1,0,1.51L64,101.33a11.4,11.4,0,0,1-7.42,3.31A11.4,11.4,0,0,0,65.27,101.33Z" style="fill:#d1d3d4"/><path d="M129.68,24a13.65,13.65,0,0,0-10.35-4,13.69,13.69,0,0,1,9,23.37L43.68,128.08a16.13,16.13,0,0,1-10.8,4.71A16.17,16.17,0,0,0,45,128.08l84.69-84.69A13.72,13.72,0,0,0,129.68,24Z" style="fill:#d1d3d4"/><path d="M81.42,46a1.06,1.06,0,0,1,0,1.51L22.28,106.68a14,14,0,0,0,10.6,24,14,14,0,0,1-9.29-24L82.73,47.54a1.08,1.08,0,0,0,0-1.51A1.06,1.06,0,0,0,81.32,46Z" style="fill:#d1d3d4"/></g></svg>