<svg xmlns="http://www.w3.org/2000/svg" viewBox="0 0 150 150"><g id="salt"><rect width="150" height="150" rx="5" style="fill:#bcbec0"/><ellipse cx="75" cy="20.74" rx="23.2" ry="12.15" style="fill:#59595b"/><path d="M102.67,141.42H47.33a3.6,3.6,0,0,1-3.6-3.6v-81a9.26,9.26,0,0,1,1.06-4.29l4.68-8.93a5.46,5.46,0,0,1,4.83-2.92H95.72a5.44,5.44,0,0,1,4.81,2.9l4.66,8.76a9.31,9.31,0,0,1,1.07,4.33v81.14A3.6,3.6,0,0,1,102.67,141.42Z" style="fill:#f2f2f3"/><path d="M53.61,38.33H96.39a1.4,1.4,0,0,1,1.4,1.4V41a0,0,0,0,1,0,0H52.2a0,0,0,0,1,0,0V39.73A1.4,1.4,0,0,1,53.61,38.33Z" style="fill:#59595b"/><rect x="54.94" y="26.96" width="40.12" height="11.37" style="fill:#464949"/><rect x="53.29" y="33.48" width="43.41" height="3.24" rx="1.62" style="fill:#59595b"/><rect x="53.29" y="28.67" width="43.41" height="3.24" rx="1.62" style="fill:#59595b"/><ellipse cx="68.97" cy="11.05" rx="2.81" ry="0.58" style="fill:#464949"/><ellipse cx="69.38" cy="11.05" rx="2.81" ry="0.58" style="fill:#231f20"/><ellipse cx="75" cy="9.16" rx="2.81" ry="0.58" style="fill:#231f20"/><ellipse cx="80.62" cy="10.81" rx="2.81" ry="0.58" style="fill:#231f20"/><rect x="113.33" y="136.84" width="3.63" height="3.63" rx="0.55" style="fill:#f2f2f3"/><rect x="116.95" y="136.84" width="3.63" height="3.63" rx="0.55" style="fill:#f2f2f3"/><rect x="120.58" y="136.84" width="3.63" height="3.63" rx="0.55" style="fill:#f2f2f3"/><rect x="115.14" y="133.21" width="3.63" height="3.63" rx="0.55" style="fill:#f2f2f3"/><rect x="118.77" y="133.21" width="3.63" height="3.63" rx="0.55" style="fill:#f2f2f3"/><rect x="116.95" y="129.58" width="3.63" height="3.63" rx="0.55" style="fill:#f2f2f3"/><rect x="43.73" y="77.38" width="62.72" height="27.35" style="fill:#59595b"/><text transform="translate(57.74 96.37)" style="font-size:16.620784759521484px;fill:#fff;font-family:D-DIN-Bold, D-DIN;font-weight:700">SA<tspan x="19.18" y="0" style="letter-spacing:-0.10599491994448523em">L</tspan><tspan x="25.99" y="0">T</tspan></text></g></svg>