<svg xmlns="http://www.w3.org/2000/svg" viewBox="0 0 150 150"><g id="meter"><path d="M150,112.5a75,75,0,0,0-150,0Z" style="fill:#414042"/><path d="M75,112.5H3.68a70.92,70.92,0,0,1,9.24-35.13Z" style="fill:#f68c1f"/><path d="M75,112.5,12.92,77.37a71.52,71.52,0,0,1,26.4-26.65Z" style="fill:#ffcd22"/><path d="M75,41.16V112.5L39.32,50.72A71,71,0,0,1,75,41.16Z" style="fill:#42b649"/><path d="M137,77.25,75,112.5l35.9-61.65A71.34,71.34,0,0,1,137,77.25Z" style="fill:#3d469c"/><path d="M146.34,112.5H75l62-35.25A71,71,0,0,1,146.34,112.5Z" style="fill:#652c8f"/><path d="M110.9,50.85,75,112.5V41.16A70.9,70.9,0,0,1,110.9,50.85Z" style="fill:#0ca4bd"/><path d="M56.72,113.05a18.12,18.12,0,1,1,36.23,0" style="fill:#fff"/><path d="M77.05,106.25v-49l-2-6.36-1.9,6.36v49a6.56,6.56,0,0,0-4.67,6.29H81.57A6.59,6.59,0,0,0,77.05,106.25Z" style="fill:#414042"/></g></svg>